<?xml version="1.0" encoding="utf-8"?>
<!-- Generator: Adobe Illustrator 21.0.2, SVG Export Plug-In . SVG Version: 6.00 Build 0)  -->
<svg version="1.1" id="Layer_1" xmlns="http://www.w3.org/2000/svg" xmlns:xlink="http://www.w3.org/1999/xlink" x="0px" y="0px"
	 viewBox="0 0 28.3 28.3" style="enable-background:new 0 0 28.3 28.3;" xml:space="preserve">
<style type="text/css">
	.st0{fill:#FFFFFF;}
</style>
<title>Untitled-1</title>
<path class="st0" d="M21.3,23.2l0.3,0l0-0.2l-0.1-0.1c-0.1-0.2-0.3-0.3-0.7-0.3H10.1l0.3-0.7c0.6-1.4,0.9-2.7,0.9-4
	c0-0.6,0-1.2-0.1-1.8L11.1,15h5.6c0.4,0,0.8-0.3,0.8-0.8c0-0.4-0.3-0.8-0.8-0.8H11L10.9,13c0-0.4-0.1-0.7-0.1-1.2L10.7,11
	c-0.1-2,0.7-3.2,1.3-3.8c0.8-0.8,1.9-1.3,3.1-1.4c0.2,0,0.4,0,0.6,0c1,0,2,0.3,2.7,0.8c1,0.7,1.6,1.8,1.7,3.3c0,0.3,0.3,0.7,0.8,0.7
	c0,0,0,0,0,0c0.2,0,0.4-0.1,0.6-0.3c0.1-0.1,0.2-0.3,0.2-0.5c-0.2-1.9-1-3.4-2.3-4.4c-1-0.7-2.2-1.1-3.5-1.1l-0.2,0
	c-0.2,0-0.3,0-0.4,0l-0.1,0c-1.6,0.2-3.1,0.9-4.1,2c-1.2,1.2-1.7,2.9-1.6,4.8c0,0.4,0.1,0.7,0.1,1c0,0.2,0,0.5,0,0.7l0.1,0.5H7.5
	c-0.4,0-0.8,0.3-0.8,0.8c0,0.4,0.4,0.8,0.8,0.8h2l0,0.5c0,0.3,0.1,0.6,0.1,0.9c0.1,0.6,0.1,1.1,0.1,1.6c0,1.6-0.3,3-1.6,5
	C8,23.1,8,23.3,8,23.5c0,0.2,0.1,0.3,0.3,0.5c0.1,0.1,0.3,0.1,0.4,0.1h12.1c0.2,0,0.4-0.1,0.5-0.2c0.1-0.2,0.2-0.3,0.2-0.5
	L21.3,23.2L21.3,23.2L21.3,23.2z"/>
</svg>
