<?xml version="1.0" encoding="utf-8"?>
<!-- Generator: Adobe Illustrator 21.0.2, SVG Export Plug-In . SVG Version: 6.00 Build 0)  -->
<svg version="1.1" id="Layer_1" xmlns="http://www.w3.org/2000/svg" xmlns:xlink="http://www.w3.org/1999/xlink" x="0px" y="0px"
	 viewBox="0 0 28.3 28.3" style="enable-background:new 0 0 28.3 28.3;" xml:space="preserve">
<style type="text/css">
	.st0{fill:#FFFFFF;}
</style>
<title>Untitled-1</title>
<g>
	<g>
		<path class="st0" d="M14.2,27.9c-7.5,0-13.6-6.1-13.6-13.6c0-7.5,6.1-13.6,13.6-13.6s13.6,6.1,13.6,13.6
			C27.8,21.8,21.7,27.9,14.2,27.9z M14.2,1.9C7.3,1.9,1.8,7.4,1.8,14.3c0,6.8,5.6,12.4,12.4,12.4s12.4-5.6,12.4-12.4
			C26.6,7.4,21,1.9,14.2,1.9z"/>
	</g>
	<g>
		<g>
			<g>
				<path class="st0" d="M14.5,13.8l5.7,5.7c0.3,0.3,0.3,0.7,0,0.9s-0.7,0.3-0.9,0l-5.7-5.7c-0.3-0.3-0.3-0.7,0-0.9
					S14.3,13.6,14.5,13.8z"/>
			</g>
		</g>
		<g>
			<g>
				<path class="st0" d="M14.7,4.3v10c0,0.4-0.3,0.6-0.6,0.6s-0.6-0.3-0.6-0.6v-10c0-0.4,0.3-0.6,0.6-0.6S14.7,4,14.7,4.3z"/>
			</g>
		</g>
	</g>
</g>
</svg>
