<?xml version="1.0" encoding="utf-8"?>
<!-- Generator: Adobe Illustrator 21.0.2, SVG Export Plug-In . SVG Version: 6.00 Build 0)  -->
<svg version="1.1" id="Layer_1" xmlns="http://www.w3.org/2000/svg" xmlns:xlink="http://www.w3.org/1999/xlink" x="0px" y="0px"
	 viewBox="0 0 28.3 28.3" style="enable-background:new 0 0 28.3 28.3;" xml:space="preserve">
<style type="text/css">
	.st0{fill:#FFFFFF;}
</style>
<title>Untitled-1</title>
<g>
	<g>
		<g>
			<path class="st0" d="M23.2,15.8c-0.4,0-0.6-0.3-0.6-0.6c0-4.6-3.8-8.4-8.4-8.4s-8.4,3.8-8.4,8.4c0,0.4-0.3,0.6-0.6,0.6
				s-0.6-0.3-0.6-0.6c0-5.3,4.3-9.7,9.7-9.7s9.7,4.3,9.7,9.7C23.8,15.5,23.5,15.8,23.2,15.8z"/>
		</g>
		<g>
			<path class="st0" d="M27.7,16.4H0.6c-0.4,0-0.6-0.3-0.6-0.6c0-0.4,0.3-0.6,0.6-0.6h27.1c0.4,0,0.6,0.3,0.6,0.6
				C28.3,16.1,28.1,16.4,27.7,16.4z"/>
		</g>
		<g>
			<path class="st0" d="M24.5,19.6H3.2c-0.4,0-0.6-0.3-0.6-0.6s0.3-0.6,0.6-0.6h21.3c0.4,0,0.6,0.3,0.6,0.6S24.8,19.6,24.5,19.6z"/>
		</g>
		<g>
			<path class="st0" d="M19.3,22.9h-11c-0.4,0-0.6-0.3-0.6-0.6s0.3-0.6,0.6-0.6h11c0.4,0,0.6,0.3,0.6,0.6S19.7,22.9,19.3,22.9z"/>
		</g>
	</g>
</g>
</svg>
