<?xml version="1.0" encoding="utf-8"?>
<!-- Generator: Adobe Illustrator 21.0.2, SVG Export Plug-In . SVG Version: 6.00 Build 0)  -->
<svg version="1.1" id="Layer_1" xmlns="http://www.w3.org/2000/svg" xmlns:xlink="http://www.w3.org/1999/xlink" x="0px" y="0px"
	 viewBox="0 0 278.4 278.4" style="enable-background:new 0 0 278.4 278.4;" xml:space="preserve">
<style type="text/css">
	.st0{fill:none;stroke:#FFFFFF;stroke-width:1.5;stroke-miterlimit:10;}
	.st1{fill:#FFFFFF;}
	.st2{fill:none;stroke:#FFFFFF;stroke-miterlimit:10;}
</style>
<g>
	<g>

			<rect x="43.1" y="41.3" transform="matrix(1 -8.699798e-03 8.699798e-03 1 -1.1948 1.2208)" class="st0" width="193.3" height="193.3"/>

			<rect x="43" y="41.4" transform="matrix(0.7132 -0.7009 0.7009 0.7132 -56.6826 137.4558)" class="st0" width="193.3" height="193.3"/>

			<ellipse transform="matrix(0.3827 -0.9239 0.9239 0.3827 -42.6693 214.5132)" class="st0" cx="139.2" cy="139.2" rx="138.4" ry="138.4"/>
	</g>
	<g>
		<g>
			<path class="st1" d="M71.5,115.9l0-0.5L74,115l0-18.9l-2.4-0.3l0-0.5l7.7,0l0,0.5l-2.4,0.4l0,8.6l9.9,0l0-8.6l-2.4-0.4l0-0.5
				l7.7,0l0,0.5l-2.4,0.4l0,18.9l2.4,0.4l0,0.5l-7.7,0l0-0.5l2.4-0.4l0-9.7l-9.9,0l0,9.7l2.4,0.4l0,0.5L71.5,115.9z"/>
			<path class="st1" d="M97.6,115.9l0-0.5l2.4-0.4l0-18.9l-2.4-0.3l0-0.5l7.7,0l0,0.5l-2.4,0.4l0,18.9l2.4,0.4l0,0.5L97.6,115.9z"/>
			<path class="st1" d="M111.1,115.3l2.4-0.4l0-18.9l-2.4-0.3l0-0.5l10,0c1.9,0,3.6,0.4,5.1,1.3s2.6,2.1,3.5,3.6
				c0.9,1.6,1.3,3.5,1.2,5.5c0,2.1-0.4,3.9-1.3,5.4c-0.9,1.6-2,2.7-3.5,3.7c-1.5,0.9-3.1,1.3-5.1,1.3l-10,0L111.1,115.3z
				 M120.9,115.3c1.3,0,2.4-0.3,3.4-0.9s1.8-1.4,2.3-2.6c0.6-1.2,0.8-2.6,0.8-4.2l0-4c0-1.6-0.3-3-0.8-4.2c-0.6-1.2-1.3-2.1-2.3-2.6
				c-0.9-0.6-2.1-0.9-3.4-0.9l-4.7,0l0,19.5L120.9,115.3z"/>
			<path class="st1" d="M136.9,115.3l2.4-0.4l0-18.9l-2.4-0.3l0-0.5l10,0c1.9,0,3.6,0.4,5.1,1.3c1.5,0.8,2.6,2.1,3.5,3.6
				c0.9,1.6,1.3,3.5,1.2,5.5c0,2.1-0.4,3.9-1.3,5.4s-2,2.7-3.5,3.7c-1.5,0.9-3.1,1.3-5.1,1.3l-10,0L136.9,115.3z M146.8,115.3
				c1.3,0,2.4-0.3,3.4-0.9c1-0.6,1.8-1.4,2.3-2.6c0.6-1.2,0.8-2.6,0.8-4.2l0-4c0-1.6-0.3-3-0.8-4.2c-0.6-1.2-1.3-2.1-2.3-2.6
				c-1-0.5-2.1-0.9-3.3-0.8l-4.7,0l0,19.5L146.8,115.3z"/>
			<path class="st1" d="M162.7,115.9l0-0.5l2.4-0.4l0-18.9l-2.4-0.3l0-0.5l15.7,0l0,6l-0.7,0l-2-5.3l-7.7,0l0,9.3l3.4,0l1.6-3.8
				l0.7,0l0,8.2l-0.7,0l-1.6-3.8l-3.4,0l0.1,9.5l8.1,0l2.1-5.7l0.7,0l0,6.4L162.7,115.9z"/>
			<path class="st1" d="M185.2,115.9l0-0.5l2.4-1.1l0-17.6l-2.4-1l0-0.5l4.9,0l11.2,15.7l0-14.1l-2.4-1l0-0.5l5.5,0l0,0.5l-2.5,1
				l0,19.3l-0.6,0l-13-18.3l0,16.7l2.5,1l0,0.5L185.2,115.9z"/>
			<path class="st1" d="M96.6,148c-1.5-0.9-2.5-2.2-3.3-3.8c-0.7-1.6-1.1-3.5-1.1-5.7c0-2.2,0.4-4.1,1.3-5.6c0.8-1.6,2-3,3.4-3.9
				c1.5-0.9,3.2-1.4,5-1.4c1.7,0,3.3,0.5,4.5,1.3l1.6-1.4l0.5,0l0,6.5l-0.5,0l-1.7-4.3c-1.2-1-2.7-1.6-4.4-1.6
				c-1.2,0-2.3,0.3-3.3,0.9c-1,0.6-1.7,1.6-2.2,2.8c-0.5,1.2-0.8,2.6-0.8,4.3l0,4.8c0,1.6,0.3,3,0.7,4.2c0.5,1.2,1.2,2.1,2.1,2.7
				c0.9,0.6,2,0.9,3.2,1c1.5,0,2.7-0.4,3.5-1.4c0.8-1,1.2-2.2,1.2-3.7l0-2.4l-2.4-0.4l0-0.5l7.8,0l0,0.5l-2.4,0.4l0,2.4
				c0,1-0.3,1.9-0.8,2.8c-0.6,0.8-1.4,1.6-2.5,2.1c-1.2,0.5-2.6,0.8-4.3,0.8C99.6,149.4,97.9,148.9,96.6,148z"/>
			<path class="st1" d="M116.5,148.8l0-0.5l2.4-0.4l0-18.9l-2.4-0.3l0-0.5l15.7,0l0,6l-0.7,0l-2-5.3l-7.7,0l0,9.3l3.4,0l1.6-3.8
				l0.7,0l0,8.2l-0.7,0l-1.6-3.8l-3.4,0l0.1,9.5l8.1,0l2.1-5.7l0.7,0l0,6.4L116.5,148.8z"/>
			<path class="st1" d="M149.7,149.2l-7.8-20.1l0,18.3l2.5,1l0,0.5l-5.5,0l0-0.5l2.5-1l0-18.3l-2.4-0.3l0-0.5l5.7,0l6.5,16.7
				l6.7-16.7l5.3,0l0,0.5l-2.4,0.4l0,18.9l2.4,0.4l0,0.5l-7.7,0l0-0.5l2.4-0.4l0.1-18.2l-7.7,19.3L149.7,149.2z"/>
			<path class="st1" d="M172.3,148l-2.2,1.1l-0.5,0l0-6.7l0.5,0l2.2,4.8c1.4,1,3.1,1.5,5,1.5c1.5,0,2.8-0.4,3.8-1.3
				c1-0.8,1.5-2,1.5-3.4c0-1.1-0.3-1.9-0.9-2.4c-0.6-0.6-1.7-1.1-3.1-1.5l-4.3-1.1c-1.5-0.4-2.7-1.1-3.4-2c-0.7-0.9-1.2-2.1-1.2-3.4
				c0-1.2,0.3-2.3,0.7-3.2c0.5-0.9,1.2-1.7,2.1-2.2c1-0.5,2.1-0.8,3.3-0.8c1.6,0,3,0.3,4.2,0.8l1.9-0.9l0.5,0l0,5.3l-0.5,0l-1.9-3.8
				c-1.3-0.6-2.8-0.9-4.3-0.9c-1.5,0-2.7,0.4-3.5,1.1c-0.8,0.7-1.3,1.8-1.3,3c0,1,0.3,1.6,0.9,2.2c0.6,0.6,1.5,1,2.7,1.2l4.7,1.2
				c1.5,0.4,2.6,1.1,3.4,2c0.7,0.9,1.1,2.3,1.1,4.2c0,1.9-0.6,3.4-1.8,4.6c-1.2,1.1-2.8,1.7-4.8,1.6
				C175.4,149.4,173.9,148.9,172.3,148z"/>
			<path class="st1" d="M90,181.1c-1.5-0.9-2.5-2.2-3.3-3.8c-0.7-1.6-1.1-3.5-1.1-5.7c0-2.2,0.4-4.1,1.3-5.6c0.8-1.6,2-3,3.4-3.9
				c1.5-0.9,3.2-1.4,5-1.4c1.7,0,3.3,0.5,4.5,1.3l1.6-1.4l0.5,0l0,6.5l-0.5,0l-1.7-4.3c-1.3-1.1-2.7-1.6-4.4-1.6
				c-1.2,0-2.3,0.3-3.3,0.9c-1,0.6-1.7,1.6-2.2,2.8c-0.5,1.2-0.8,2.6-0.8,4.3l0,4.8c0,1.6,0.3,3,0.7,4.2c0.5,1.2,1.2,2.1,2.1,2.7
				c0.9,0.6,2,0.9,3.2,1c1.5,0,2.7-0.4,3.5-1.4s1.2-2.2,1.2-3.7l0-2.4l-2.4-0.4l0-0.5l7.8,0l0,0.5l-2.4,0.4l0,2.4
				c0,1-0.3,1.9-0.8,2.8c-0.6,0.8-1.4,1.6-2.5,2.1c-1.2,0.5-2.6,0.8-4.3,0.8C93.1,182.5,91.5,182,90,181.1z"/>
			<path class="st1" d="M113.8,180.7c-1.2-1.1-1.7-2.7-1.8-4.5l0-14.2l-2.4-0.3l0-0.5l7.7,0l0,0.5l-2.4,0.4l0,14.2
				c0,1.7,0.5,3,1.4,3.9c0.9,0.9,2.4,1.3,4.3,1.4c3.7,0,5.5-1.7,5.5-5.3l0-13.5l-2.4-1l0-0.5l5.5,0l0,0.5l-2.5,1l0,13.5
				c0,2.1-0.5,3.7-1.7,4.7c-1.2,1-3,1.6-5.6,1.6C116.8,182.4,115,181.9,113.8,180.7z"/>
			<path class="st1" d="M134.7,181.9l0-0.5l2.4-0.4l0-18.9l-2.4-0.3l0-0.5l7.7,0l0,0.5l-2.4,0.4l0,18.9l2.4,0.4l0,0.5L134.7,181.9z"
				/>
			<path class="st1" d="M148,181.4l2.4-0.4l0-18.9l-2.4-0.3l0-0.5l10,0c1.9,0,3.6,0.4,5.1,1.3c1.5,0.8,2.6,2.1,3.5,3.6
				s1.3,3.5,1.2,5.5c-0.1,2-0.4,3.9-1.3,5.4c-0.9,1.6-2,2.7-3.5,3.7c-1.5,0.9-3.1,1.3-5.1,1.3l-10,0L148,181.4z M158,181.3
				c1.3,0,2.4-0.3,3.4-0.9s1.8-1.4,2.3-2.6c0.6-1.2,0.8-2.6,0.8-4.2l0-4c0-1.6-0.3-3-0.8-4.2s-1.3-2.1-2.3-2.6
				c-0.9-0.6-2.1-0.9-3.3-0.8l-4.7,0l0,19.5L158,181.3z"/>
			<path class="st1" d="M173.9,181.9l0-0.5l2.4-0.4l0-18.9l-2.4-0.3l0-0.5l15.7,0l0,6l-0.7,0l-2-5.3l-7.7,0l0,9.3l3.4,0l1.6-3.8
				l0.7,0l0,8.2l-0.7,0l-1.6-3.8l-3.4,0l0.1,9.5l8.1,0l2.1-5.7l0.7,0l0,6.4L173.9,181.9z"/>
		</g>
		<g>
			<line class="st2" x1="56.4" y1="138.6" x2="76.3" y2="138.6"/>
			<line class="st2" x1="202.6" y1="138.6" x2="222.5" y2="138.6"/>
		</g>
	</g>
</g>
</svg>
