<?xml version="1.0" encoding="utf-8"?>
<!-- Generator: Adobe Illustrator 21.1.0, SVG Export Plug-In . SVG Version: 6.00 Build 0)  -->
<svg version="1.1" id="Layer_1" xmlns="http://www.w3.org/2000/svg" xmlns:xlink="http://www.w3.org/1999/xlink" x="0px" y="0px"
	 viewBox="0 0 736.8 193.4" style="enable-background:new 0 0 736.8 193.4;" xml:space="preserve">
<style type="text/css">
	.st0{fill:#364E9C;}
	.st1{fill:#2172B5;}
	.st2{fill:#33A5DD;}
	.st3{fill:#6FC4EF;}
	.st4{fill:#F8D51C;}
	.st5{fill:#F19101;}
	.st6{fill:#E9551E;}
	.st7{fill:#DF2E23;}
	.st8{fill:#BA1B27;}
	.st9{fill:#A01C24;}
	.st10{fill:#811811;}
	.st11{fill:#FFFFFF;}
</style>
<g>
	<g>
		<g>
			<path class="st0" d="M58.6,84.6c0,4.5-0.8,8.2-2.5,11.3c-1.7,3.1-3.9,5.5-6.7,7.4c-2.8,1.9-6.1,3.2-9.7,4.1
				c-3.7,0.9-7.5,1.3-11.5,1.3H19v28.9H0.5V61h28.1c4.2,0,8.1,0.4,11.7,1.2c3.6,0.8,6.8,2.2,9.5,4c2.7,1.8,4.8,4.3,6.4,7.2
				C57.8,76.5,58.6,80.2,58.6,84.6z M40.1,84.7c0-1.8-0.4-3.3-1.1-4.4c-0.7-1.2-1.7-2.1-2.9-2.7c-1.2-0.6-2.6-1.1-4.2-1.3
				c-1.6-0.2-3.2-0.3-4.8-0.3H19V94h7.8c1.7,0,3.4-0.1,5-0.4c1.6-0.3,3-0.8,4.3-1.5c1.3-0.7,2.3-1.7,3-2.9
				C39.7,88,40.1,86.5,40.1,84.7z"/>
			<path class="st1" d="M126.2,137.5v-32H96.4v32H77.9V61h18.5v29h29.8V61h18.5v76.6H126.2z"/>
			<path class="st2" d="M168.7,137.5V61h18.6v76.6H168.7z"/>
			<path class="st3" d="M211.3,137.5V61h18.6v60.4h29.6v16.1H211.3z"/>
			<path class="st4" d="M276.4,137.5V61H295v76.6H276.4z"/>
			<path class="st5" d="M377.1,84.6c0,4.5-0.8,8.2-2.5,11.3c-1.7,3.1-3.9,5.5-6.7,7.4c-2.8,1.9-6.1,3.2-9.7,4.1
				c-3.7,0.9-7.5,1.3-11.5,1.3h-9.2v28.9H319V61h28.1c4.2,0,8.1,0.4,11.7,1.2c3.6,0.8,6.8,2.2,9.5,4c2.7,1.8,4.8,4.3,6.4,7.2
				C376.3,76.5,377.1,80.2,377.1,84.6z M358.6,84.7c0-1.8-0.4-3.3-1.1-4.4c-0.7-1.2-1.7-2.1-2.9-2.7c-1.2-0.6-2.6-1.1-4.2-1.3
				c-1.6-0.2-3.2-0.3-4.8-0.3h-8.1V94h7.8c1.7,0,3.4-0.1,5-0.4c1.6-0.3,3-0.8,4.3-1.5c1.3-0.7,2.3-1.7,3-2.9
				C358.3,88,358.6,86.5,358.6,84.7z"/>
			<path class="st6" d="M454.5,84.6c0,4.5-0.8,8.2-2.5,11.3c-1.7,3.1-3.9,5.5-6.7,7.4c-2.8,1.9-6.1,3.2-9.7,4.1
				c-3.7,0.9-7.5,1.3-11.5,1.3H415v28.9h-18.5V61h28.1c4.2,0,8.1,0.4,11.7,1.2c3.6,0.8,6.8,2.2,9.5,4c2.7,1.8,4.8,4.3,6.4,7.2
				C453.8,76.5,454.5,80.2,454.5,84.6z M436,84.7c0-1.8-0.4-3.3-1.1-4.4c-0.7-1.2-1.7-2.1-2.9-2.7c-1.2-0.6-2.6-1.1-4.2-1.3
				c-1.6-0.2-3.2-0.3-4.8-0.3H415V94h7.8c1.7,0,3.4-0.1,5-0.4c1.6-0.3,3-0.8,4.3-1.5c1.3-0.7,2.3-1.7,3-2.9
				C435.7,88,436,86.5,436,84.7z"/>
			<path class="st7" d="M473.9,137.5V61h18.6v76.6H473.9z"/>
			<path class="st8" d="M565.1,137.5l-30.8-50.1H534l0.4,50.1h-17.9V61h21.1l30.7,50h0.3l-0.4-50h17.9v76.6H565.1z"/>
			<path class="st9" d="M610.1,137.5V61h51.5v15.6H628V91h31.8v14.8H628v15.9h35.6v15.8H610.1z"/>
			<g id="XMLID_4_">
				<g>
					<path class="st10" d="M736.2,68.4l-11.8,12.4c-1.6-2-3.7-3.6-6.2-4.8c-2.5-1.2-5-1.8-7.4-1.8c-1.2,0-2.5,0.1-3.7,0.3
						c-1.3,0.2-2.4,0.6-3.4,1.2c-1,0.6-1.8,1.4-2.5,2.4c-0.7,1-1,2.2-1,3.7c0,1.3,0.3,2.4,0.8,3.2c0.5,0.9,1.3,1.6,2.4,2.3
						c1.1,0.7,2.3,1.3,3.7,1.8s3.1,1.1,4.9,1.7c2.6,0.9,5.3,1.8,8.1,2.8c2.8,1.1,5.4,2.4,7.7,4.2c2.3,1.7,4.2,3.9,5.7,6.4
						c1.5,2.6,2.3,5.7,2.3,9.6c0,4.4-0.8,8.2-2.4,11.4c-1.6,3.2-3.8,5.8-6.5,7.9c-2.7,2.1-5.9,3.6-9.4,4.6s-7.2,1.5-10.9,1.5
						c-5.5,0-10.8-1-15.9-2.9c-5.1-1.9-9.4-4.6-12.7-8.1l12.1-12.3c1.9,2.3,4.3,4.2,7.4,5.8c3.1,1.6,6.1,2.3,9.1,2.3
						c1.4,0,2.7-0.1,4-0.4c1.3-0.3,2.4-0.7,3.4-1.4c1-0.7,1.8-1.5,2.3-2.6c0.6-1.1,0.9-2.4,0.9-3.9c0-1.4-0.4-2.7-1.1-3.7
						c-0.7-1-1.8-1.9-3.1-2.8c-1.3-0.8-3-1.6-5-2.3c-2-0.7-4.2-1.4-6.8-2.2c-2.5-0.8-4.8-1.8-7.2-2.8c-2.3-1.1-4.4-2.5-6.3-4.2
						c-1.8-1.7-3.3-3.8-4.4-6.2c-1.1-2.4-1.7-5.3-1.7-8.8c0-4.2,0.9-7.9,2.6-10.9c1.7-3,4-5.5,6.8-7.5c2.8-1.9,6-3.4,9.5-4.3
						c3.5-0.9,7.1-1.4,10.7-1.4c4.3,0,8.7,0.8,13.2,2.4S732.8,65.4,736.2,68.4z"/>
				</g>
				<g>
				</g>
			</g>
		</g>
		<g>
			<g>
				<path class="st11" d="M144.3,29.3V0.8h6.9v28.5H144.3z"/>
				<path class="st11" d="M169.4,6.6v22.6h-6.9V6.6h-8.1V0.8h23v5.9H169.4z"/>
				<path class="st11" d="M184.5,11.7h-5.1l2.9-10.9h5.8L184.5,11.7z"/>
				<path class="st11" d="M208,8.2c-0.6-0.8-1.4-1.3-2.3-1.8c-1-0.4-1.9-0.7-2.8-0.7c-0.5,0-0.9,0-1.4,0.1c-0.5,0.1-0.9,0.2-1.3,0.5
					c-0.4,0.2-0.7,0.5-0.9,0.9C199.1,7.6,199,8,199,8.6c0,0.5,0.1,0.9,0.3,1.2c0.2,0.3,0.5,0.6,0.9,0.8c0.4,0.2,0.9,0.5,1.4,0.7
					c0.5,0.2,1.1,0.4,1.8,0.6c1,0.3,2,0.7,3,1.1c1,0.4,2,0.9,2.9,1.6c0.9,0.6,1.6,1.4,2.1,2.4c0.6,1,0.8,2.1,0.8,3.6
					c0,1.6-0.3,3.1-0.9,4.3c-0.6,1.2-1.4,2.2-2.4,3c-1,0.8-2.2,1.4-3.5,1.7c-1.3,0.4-2.7,0.6-4.1,0.6c-2,0-4-0.4-5.9-1.1
					c-1.9-0.7-3.5-1.7-4.8-3l4.5-4.6c0.7,0.9,1.6,1.6,2.8,2.2c1.1,0.6,2.3,0.9,3.4,0.9c0.5,0,1-0.1,1.5-0.2c0.5-0.1,0.9-0.3,1.3-0.5
					c0.4-0.2,0.7-0.6,0.9-1c0.2-0.4,0.3-0.9,0.3-1.5c0-0.5-0.1-1-0.4-1.4c-0.3-0.4-0.7-0.7-1.1-1c-0.5-0.3-1.1-0.6-1.9-0.8
					c-0.7-0.3-1.6-0.5-2.5-0.8c-0.9-0.3-1.8-0.6-2.7-1c-0.9-0.4-1.7-0.9-2.3-1.6c-0.7-0.6-1.2-1.4-1.7-2.3c-0.4-0.9-0.6-2-0.6-3.3
					c0-1.6,0.3-2.9,1-4.1c0.6-1.1,1.5-2.1,2.5-2.8c1-0.7,2.2-1.3,3.5-1.6c1.3-0.3,2.6-0.5,4-0.5c1.6,0,3.3,0.3,4.9,0.9
					c1.7,0.6,3.1,1.5,4.4,2.6L208,8.2z"/>
				<path class="st11" d="M252.9,29.3l0.2-20.2H253l-7.4,20.2h-4.8l-7.2-20.2h-0.1l0.2,20.2h-6.5V0.8h9.8l6.5,18.3h0.2l6.2-18.3h10
					v28.5H252.9z"/>
				<path class="st11" d="M295.4,14.9c0,2.3-0.4,4.3-1.2,6.2c-0.8,1.9-1.9,3.5-3.2,4.8c-1.4,1.3-3,2.4-4.9,3.1
					c-1.9,0.7-4,1.1-6.2,1.1c-2.2,0-4.3-0.4-6.2-1.1c-1.9-0.7-3.5-1.8-4.9-3.1c-1.4-1.3-2.5-2.9-3.2-4.8c-0.8-1.9-1.2-3.9-1.2-6.2
					c0-2.3,0.4-4.3,1.2-6.2c0.8-1.8,1.9-3.4,3.2-4.7c1.4-1.3,3-2.3,4.9-3c1.9-0.7,4-1,6.2-1c2.2,0,4.3,0.3,6.2,1
					c1.9,0.7,3.6,1.7,4.9,3c1.4,1.3,2.5,2.9,3.2,4.7C295,10.6,295.4,12.6,295.4,14.9z M288,14.9c0-1.2-0.2-2.4-0.6-3.5
					c-0.4-1.1-1-2-1.7-2.8c-0.7-0.8-1.6-1.4-2.6-1.8c-1-0.4-2.1-0.7-3.3-0.7c-1.2,0-2.3,0.2-3.3,0.7c-1,0.4-1.9,1-2.6,1.8
					c-0.7,0.8-1.3,1.7-1.7,2.8c-0.4,1.1-0.6,2.2-0.6,3.5c0,1.3,0.2,2.5,0.6,3.6c0.4,1.1,1,2,1.7,2.8c0.7,0.8,1.6,1.4,2.6,1.8
					c1,0.4,2.1,0.7,3.3,0.7c1.2,0,2.3-0.2,3.3-0.7c1-0.4,1.9-1.1,2.6-1.8c0.7-0.8,1.3-1.7,1.7-2.8C287.8,17.4,288,16.2,288,14.9z"/>
				<path class="st11" d="M315.3,29.3L309.1,18h-2.3v11.3h-6.7V0.8h10.9c1.4,0,2.7,0.1,4,0.4c1.3,0.3,2.5,0.8,3.5,1.4
					s1.9,1.6,2.5,2.7c0.6,1.1,0.9,2.5,0.9,4.1c0,1.9-0.5,3.6-1.6,4.9c-1,1.3-2.5,2.3-4.4,2.8l7.5,12.2H315.3z M315,9.5
					c0-0.7-0.1-1.2-0.4-1.6c-0.3-0.4-0.6-0.7-1.1-1c-0.4-0.2-0.9-0.4-1.5-0.5c-0.6-0.1-1.1-0.1-1.6-0.1h-3.7V13h3.3
					c0.6,0,1.1,0,1.7-0.1c0.6-0.1,1.1-0.3,1.6-0.5c0.5-0.2,0.9-0.6,1.2-1C314.9,10.8,315,10.2,315,9.5z"/>
				<path class="st11" d="M326.9,29.3V0.8H346v5.8h-12.5V12h11.8v5.5h-11.8v5.9h13.3v5.9H326.9z"/>
				<path class="st11" d="M368.4,6.6v5.9h11v5.7h-11v11.1h-6.8V0.8h18.8v5.9H368.4z"/>
				<path class="st11" d="M408.3,23.2c-0.6,1.4-1.4,2.6-2.5,3.6c-1.1,1-2.4,1.8-3.9,2.4c-1.5,0.6-3.2,0.8-5.1,0.8
					c-1.9,0-3.6-0.3-5.1-0.8c-1.5-0.6-2.8-1.3-3.8-2.4c-1-1-1.9-2.2-2.4-3.6c-0.6-1.4-0.8-3-0.8-4.7V0.8h6.8V18
					c0,0.8,0.1,1.5,0.3,2.2c0.2,0.7,0.5,1.3,0.9,1.9c0.4,0.6,1,1,1.7,1.3c0.7,0.3,1.5,0.5,2.5,0.5c1,0,1.8-0.2,2.5-0.5
					c0.7-0.3,1.2-0.8,1.7-1.3c0.4-0.6,0.7-1.2,0.9-1.9c0.2-0.7,0.3-1.4,0.3-2.2V0.8h6.9v17.8C409.1,20.2,408.8,21.8,408.3,23.2z"/>
				<path class="st11" d="M432.9,29.3l-11.5-18.6h-0.1l0.2,18.6h-6.7V0.8h7.9l11.4,18.6h0.1L434,0.8h6.7v28.5H432.9z"/>
				<path class="st11" d="M456.9,29.3V0.8h6.9v28.5H456.9z"/>
				<path class="st11" d="M488,29.3l-11.5-18.6h-0.1l0.2,18.6h-6.7V0.8h7.9l11.4,18.6h0.1l-0.2-18.6h6.7v28.5H488z"/>
				<path class="st11" d="M523.2,6.6v22.6h-6.9V6.6h-8.1V0.8h23v5.9H523.2z"/>
				<path class="st11" d="M552.5,29.3V17.4h-11.1v11.9h-6.9V0.8h6.9v10.8h11.1V0.8h6.9v28.5H552.5z"/>
				<path class="st11" d="M565.4,29.3V0.8h19.2v5.8h-12.5V12h11.8v5.5h-11.8v5.9h13.2v5.9H565.4z"/>
			</g>
			<rect y="13.5" class="st11" width="128.4" height="2.7"/>
			<rect x="600.7" y="13.4" class="st11" width="134.6" height="2.8"/>
		</g>
	</g>
	<g>
		<path class="st11" d="M28.8,170.9H31l3.7,12.6h0.1l4.2-12.6h1.9l4.5,12.6h0.1l3.6-12.6h2L46.4,186h-2l-4.5-12.4h-0.1L35.6,186h-2
			L28.8,170.9z"/>
		<path class="st11" d="M55.8,170.9H58l3.7,12.6h0.1l4.2-12.6h1.9l4.5,12.6h0.1l3.6-12.6h2L73.4,186h-2l-4.5-12.4h-0.1L62.6,186h-2
			L55.8,170.9z"/>
		<path class="st11" d="M82.9,170.9H85l3.7,12.6h0.1l4.2-12.6h1.9l4.5,12.6h0.1l3.6-12.6h2l-4.4,15.1h-2l-4.5-12.4h-0.1L89.6,186h-2
			L82.9,170.9z"/>
		<path class="st11" d="M110.3,184.6c0-0.4,0.2-0.8,0.5-1.1c0.3-0.3,0.7-0.5,1.1-0.5c0.4,0,0.8,0.2,1.1,0.5c0.3,0.3,0.5,0.7,0.5,1.1
			s-0.2,0.8-0.5,1.1c-0.3,0.3-0.7,0.5-1.1,0.5c-0.4,0-0.8-0.2-1.1-0.5C110.4,185.4,110.3,185,110.3,184.6z"/>
		<path class="st11" d="M122.6,164.9c0-0.4,0.1-0.8,0.4-1c0.3-0.3,0.6-0.4,1-0.4c0.4,0,0.8,0.1,1,0.4c0.3,0.3,0.4,0.6,0.4,1
			c0,0.4-0.1,0.8-0.4,1c-0.3,0.3-0.6,0.4-1,0.4c-0.4,0-0.8-0.1-1-0.4C122.7,165.7,122.6,165.3,122.6,164.9z M123.1,170.9h2V186h-2
			V170.9z"/>
		<path class="st11" d="M142,172.6h-4.3v9.8c0,0.7,0.2,1.2,0.6,1.6c0.4,0.4,0.9,0.6,1.5,0.6c0.4,0,0.7,0,1.1-0.1
			c0.4-0.1,0.7-0.2,1.1-0.4l0.2,1.8c-0.4,0.1-0.8,0.3-1.3,0.4c-0.5,0.1-0.9,0.2-1.3,0.2c-0.7,0-1.3-0.1-1.8-0.3
			c-0.5-0.2-0.9-0.5-1.2-0.8c-0.3-0.3-0.5-0.8-0.7-1.2c-0.1-0.5-0.2-1-0.2-1.5v-9.8h-3.3v-1.8h3.3v-4.3h2v4.3h4.3V172.6z"/>
		<path class="st11" d="M149.5,182.1c0.4,0.8,1,1.4,1.8,1.8c0.8,0.4,1.7,0.6,2.5,0.6c0.4,0,0.8-0.1,1.2-0.2c0.4-0.1,0.8-0.3,1.1-0.6
			c0.3-0.2,0.6-0.5,0.8-0.9c0.2-0.3,0.3-0.7,0.3-1.2c0-0.7-0.2-1.2-0.7-1.6c-0.4-0.3-1-0.6-1.7-0.8s-1.4-0.4-2.2-0.5
			c-0.8-0.1-1.5-0.4-2.2-0.7c-0.7-0.3-1.2-0.7-1.7-1.2c-0.4-0.5-0.7-1.3-0.7-2.2c0-0.7,0.2-1.4,0.5-1.9c0.3-0.5,0.7-1,1.2-1.4
			c0.5-0.4,1-0.6,1.7-0.8c0.6-0.2,1.2-0.3,1.9-0.3c1.2,0,2.3,0.2,3.2,0.7c0.9,0.5,1.6,1.2,2.1,2.2l-1.8,1c-0.4-0.7-0.8-1.2-1.4-1.6
			c-0.6-0.4-1.3-0.5-2.2-0.5c-0.3,0-0.7,0.1-1.1,0.2c-0.4,0.1-0.7,0.3-1,0.5c-0.3,0.2-0.6,0.4-0.8,0.8c-0.2,0.3-0.3,0.7-0.3,1
			c0,0.7,0.2,1.2,0.7,1.5c0.4,0.3,1,0.6,1.7,0.8c0.7,0.2,1.4,0.3,2.2,0.5c0.8,0.1,1.5,0.3,2.2,0.6c0.7,0.3,1.2,0.7,1.7,1.3
			c0.4,0.6,0.7,1.3,0.7,2.4c0,0.8-0.1,1.5-0.4,2c-0.3,0.6-0.7,1.1-1.2,1.5c-0.5,0.4-1.1,0.7-1.7,0.9s-1.3,0.3-2.1,0.3
			c-1.3,0-2.5-0.3-3.6-0.8c-1.1-0.5-1.9-1.3-2.5-2.3L149.5,182.1z"/>
		<path class="st11" d="M167.5,175.1c0-0.3,0-0.6,0-1c0-0.4,0-0.8-0.1-1.2s0-0.8,0-1.2c0-0.4,0-0.6,0-0.8h2c0,0.6,0,1.1,0.1,1.6
			c0,0.5,0,0.9,0.1,1h0.1c0.4-0.8,1-1.5,2-2.1c0.9-0.6,2-0.9,3.2-0.9c1,0,1.9,0.3,2.7,0.8c0.8,0.5,1.4,1.3,1.8,2.5
			c0.5-1.1,1.2-2,2.1-2.5c0.9-0.5,1.9-0.8,3-0.8c1.2,0,2.1,0.2,2.9,0.6c0.7,0.4,1.3,0.9,1.7,1.5c0.4,0.6,0.7,1.3,0.9,2.1
			c0.2,0.8,0.2,1.6,0.2,2.4v9h-2v-8.9c0-0.6-0.1-1.2-0.2-1.8c-0.1-0.6-0.3-1.1-0.6-1.6c-0.3-0.5-0.7-0.8-1.1-1.1
			c-0.5-0.3-1.1-0.4-1.9-0.4c-0.9,0-1.7,0.2-2.3,0.5c-0.6,0.3-1.1,0.8-1.4,1.3c-0.3,0.5-0.6,1.1-0.7,1.7c-0.1,0.6-0.2,1.2-0.2,1.7
			v8.5h-2v-9.1c0-1.4-0.3-2.5-0.8-3.4c-0.5-0.9-1.3-1.3-2.4-1.3c-0.7,0-1.4,0.1-2,0.4c-0.6,0.3-1.2,0.6-1.7,1.1
			c-0.5,0.5-0.8,1.2-1.1,1.9c-0.3,0.8-0.4,1.7-0.4,2.7v7.6h-2V175.1z"/>
		<path class="st11" d="M198.5,178.4c0-1.2,0.2-2.2,0.6-3.2c0.4-1,0.9-1.8,1.6-2.5s1.5-1.3,2.5-1.7s2-0.6,3.2-0.6
			c1.2,0,2.2,0.2,3.2,0.6c1,0.4,1.8,0.9,2.5,1.7c0.7,0.7,1.3,1.5,1.7,2.5c0.4,1,0.6,2,0.6,3.2c0,1.2-0.2,2.2-0.6,3.2
			c-0.4,1-0.9,1.8-1.7,2.5c-0.7,0.7-1.5,1.3-2.5,1.7c-1,0.4-2,0.6-3.2,0.6c-1.2,0-2.2-0.2-3.2-0.6s-1.8-0.9-2.5-1.7
			c-0.7-0.7-1.2-1.5-1.6-2.5C198.7,180.6,198.5,179.6,198.5,178.4z M200.4,178.4c0,0.8,0.1,1.7,0.4,2.4c0.3,0.8,0.7,1.4,1.2,2
			c0.5,0.6,1.2,1,1.9,1.3c0.7,0.3,1.6,0.5,2.5,0.5c0.9,0,1.7-0.2,2.5-0.5c0.7-0.3,1.4-0.8,1.9-1.3c0.5-0.6,0.9-1.2,1.2-2
			c0.3-0.8,0.4-1.6,0.4-2.4c0-0.9-0.1-1.7-0.4-2.4c-0.3-0.8-0.7-1.4-1.2-2c-0.5-0.6-1.2-1-1.9-1.3s-1.6-0.5-2.5-0.5
			c-0.9,0-1.7,0.2-2.5,0.5s-1.4,0.8-1.9,1.3c-0.5,0.6-0.9,1.2-1.2,2C200.6,176.8,200.4,177.6,200.4,178.4z"/>
		<path class="st11" d="M222.8,175.1c0-0.3,0-0.6,0-1c0-0.4,0-0.8-0.1-1.2s0-0.8,0-1.2c0-0.4,0-0.6,0-0.8h2c0,0.6,0,1.1,0.1,1.6
			c0,0.5,0,0.9,0.1,1c0.5-0.9,1.1-1.6,1.9-2.2c0.8-0.6,1.7-0.9,2.9-0.9c0.2,0,0.4,0,0.6,0c0.2,0,0.4,0.1,0.6,0.1l-0.2,1.9
			c-0.3-0.1-0.5-0.1-0.8-0.1c-0.9,0-1.6,0.1-2.2,0.4c-0.6,0.3-1.1,0.6-1.5,1.1c-0.4,0.5-0.7,1-0.9,1.7s-0.3,1.3-0.3,2.1v8.2h-2
			V175.1z"/>
		<path class="st11" d="M250.4,183.1c-0.8,1.2-1.7,2-2.8,2.5c-1.1,0.5-2.4,0.8-3.7,0.8c-1.2,0-2.2-0.2-3.1-0.6
			c-0.9-0.4-1.7-0.9-2.4-1.7c-0.7-0.7-1.2-1.5-1.6-2.5c-0.4-1-0.5-2-0.5-3.2c0-1.1,0.2-2.2,0.6-3.1c0.4-1,0.9-1.8,1.6-2.5
			c0.7-0.7,1.5-1.3,2.4-1.7c0.9-0.4,1.9-0.6,3-0.6c1.2,0,2.2,0.2,3.1,0.6c0.9,0.4,1.6,0.9,2.2,1.6c0.6,0.7,1.1,1.4,1.4,2.3
			c0.3,0.8,0.5,1.7,0.5,2.6v1.4h-12.7c0,0.4,0.1,0.9,0.2,1.6c0.2,0.6,0.5,1.3,0.9,1.9s1,1.1,1.7,1.6c0.7,0.4,1.7,0.7,2.8,0.7
			c1,0,2-0.2,2.9-0.7c0.9-0.5,1.7-1.1,2.2-2L250.4,183.1z M248.9,177.1c0-0.7-0.1-1.3-0.4-1.9c-0.3-0.6-0.6-1.1-1.1-1.6
			c-0.5-0.4-1-0.8-1.7-1.1c-0.6-0.3-1.3-0.4-2-0.4c-1.1,0-2,0.2-2.7,0.7c-0.7,0.4-1.3,0.9-1.7,1.5s-0.7,1.1-0.9,1.7
			c-0.2,0.5-0.3,0.9-0.3,1.1H248.9z"/>
		<path class="st11" d="M260.4,172.6h-3.1v-1.8h3.1v-4.9c0-1,0.1-1.8,0.4-2.4c0.3-0.6,0.7-1.2,1.1-1.6c0.4-0.4,0.9-0.7,1.5-0.8
			s1-0.2,1.5-0.2c0.9,0,1.7,0.1,2.3,0.4l-0.4,1.7c-0.4-0.2-1-0.3-1.8-0.3c-1.8,0-2.6,1.3-2.6,4v4.2h3.5v1.8h-3.5V186h-2V172.6z"/>
		<path class="st11" d="M285.8,181.7c0,0.3,0,0.6,0,1c0,0.4,0,0.8,0,1.2c0,0.4,0,0.8,0.1,1.2c0,0.4,0,0.6,0,0.8h-2
			c0-0.6,0-1.1-0.1-1.6c0-0.5,0-0.9-0.1-1h-0.1c-0.4,0.8-1,1.5-2,2.1c-0.9,0.6-2,0.9-3.2,0.9c-1.2,0-2.1-0.2-2.9-0.6
			c-0.8-0.4-1.3-0.9-1.8-1.5c-0.4-0.6-0.7-1.3-0.9-2.1c-0.2-0.8-0.2-1.6-0.2-2.4v-9h2v8.9c0,0.6,0.1,1.2,0.2,1.8
			c0.1,0.6,0.3,1.1,0.6,1.6c0.3,0.5,0.7,0.8,1.1,1.1c0.5,0.3,1.1,0.4,1.9,0.4c0.7,0,1.4-0.1,2-0.4c0.6-0.2,1.2-0.6,1.7-1.1
			c0.5-0.5,0.8-1.2,1.1-1.9c0.3-0.8,0.4-1.7,0.4-2.7v-7.6h2V181.7z"/>
		<path class="st11" d="M295.2,175.1c0-0.3,0-0.6,0-1c0-0.4,0-0.8-0.1-1.2c0-0.4,0-0.8,0-1.2c0-0.4,0-0.6,0-0.8h2
			c0,0.6,0,1.1,0.1,1.6c0,0.5,0,0.9,0.1,1h0.1c0.4-0.8,1-1.5,2-2.1c0.9-0.6,2-0.9,3.2-0.9c1.2,0,2.1,0.2,2.9,0.6
			c0.7,0.4,1.3,0.9,1.7,1.5c0.4,0.6,0.7,1.3,0.9,2.1c0.2,0.8,0.2,1.6,0.2,2.4v9h-2v-8.9c0-0.6-0.1-1.2-0.2-1.8
			c-0.1-0.6-0.3-1.1-0.6-1.6c-0.3-0.5-0.7-0.8-1.1-1.1c-0.5-0.3-1.1-0.4-1.9-0.4c-0.7,0-1.4,0.1-2,0.4c-0.6,0.3-1.2,0.6-1.7,1.1
			c-0.5,0.5-0.8,1.2-1.1,1.9c-0.3,0.8-0.4,1.7-0.4,2.7v7.6h-2V175.1z"/>
		<path class="st11" d="M317.2,164.9c0-0.4,0.1-0.8,0.4-1c0.3-0.3,0.6-0.4,1-0.4c0.4,0,0.8,0.1,1,0.4c0.3,0.3,0.4,0.6,0.4,1
			c0,0.4-0.1,0.8-0.4,1c-0.3,0.3-0.6,0.4-1,0.4c-0.4,0-0.8-0.1-1-0.4C317.3,165.7,317.2,165.3,317.2,164.9z M317.7,170.9h2V186h-2
			V170.9z"/>
		<path class="st11" d="M329.2,175.1c0-0.3,0-0.6,0-1c0-0.4,0-0.8-0.1-1.2c0-0.4,0-0.8,0-1.2c0-0.4,0-0.6,0-0.8h2
			c0,0.6,0,1.1,0.1,1.6c0,0.5,0,0.9,0.1,1h0.1c0.4-0.8,1-1.5,2-2.1c0.9-0.6,2-0.9,3.2-0.9c1.2,0,2.1,0.2,2.9,0.6s1.3,0.9,1.7,1.5
			c0.4,0.6,0.7,1.3,0.9,2.1c0.2,0.8,0.2,1.6,0.2,2.4v9h-2v-8.9c0-0.6-0.1-1.2-0.2-1.8c-0.1-0.6-0.3-1.1-0.6-1.6
			c-0.3-0.5-0.7-0.8-1.1-1.1c-0.5-0.3-1.1-0.4-1.9-0.4c-0.7,0-1.4,0.1-2,0.4c-0.6,0.3-1.2,0.6-1.7,1.1c-0.5,0.5-0.8,1.2-1.1,1.9
			c-0.3,0.8-0.4,1.7-0.4,2.7v7.6h-2V175.1z"/>
		<path class="st11" d="M358.8,172.6h-4.3v9.8c0,0.7,0.2,1.2,0.6,1.6c0.4,0.4,0.9,0.6,1.5,0.6c0.4,0,0.7,0,1.1-0.1
			c0.4-0.1,0.7-0.2,1.1-0.4l0.2,1.8c-0.4,0.1-0.8,0.3-1.3,0.4c-0.5,0.1-0.9,0.2-1.3,0.2c-0.7,0-1.3-0.1-1.8-0.3
			c-0.5-0.2-0.9-0.5-1.2-0.8c-0.3-0.3-0.5-0.8-0.7-1.2c-0.1-0.5-0.2-1-0.2-1.5v-9.8h-3.3v-1.8h3.3v-4.3h2v4.3h4.3V172.6z"/>
		<path class="st11" d="M366.4,161.3h2v12.3h0.1c0.4-0.8,1-1.5,2-2.1c0.9-0.6,2-0.9,3.2-0.9c1.2,0,2.1,0.2,2.9,0.6s1.3,0.9,1.7,1.5
			c0.4,0.6,0.7,1.3,0.9,2.1c0.2,0.8,0.2,1.6,0.2,2.4v9h-2v-8.9c0-0.6-0.1-1.2-0.2-1.8c-0.1-0.6-0.3-1.1-0.6-1.6
			c-0.3-0.5-0.7-0.8-1.1-1.1c-0.5-0.3-1.1-0.4-1.9-0.4c-0.7,0-1.4,0.1-2,0.4c-0.6,0.3-1.2,0.6-1.7,1.1c-0.5,0.5-0.8,1.2-1.1,1.9
			c-0.3,0.8-0.4,1.7-0.4,2.7v7.6h-2V161.3z"/>
		<path class="st11" d="M401.9,183.1c-0.8,1.2-1.7,2-2.8,2.5c-1.1,0.5-2.4,0.8-3.7,0.8c-1.2,0-2.2-0.2-3.1-0.6
			c-0.9-0.4-1.7-0.9-2.4-1.7c-0.7-0.7-1.2-1.5-1.6-2.5c-0.4-1-0.5-2-0.5-3.2c0-1.1,0.2-2.2,0.6-3.1c0.4-1,0.9-1.8,1.6-2.5
			c0.7-0.7,1.5-1.3,2.4-1.7c0.9-0.4,1.9-0.6,3-0.6c1.2,0,2.2,0.2,3.1,0.6c0.9,0.4,1.6,0.9,2.2,1.6c0.6,0.7,1.1,1.4,1.4,2.3
			c0.3,0.8,0.5,1.7,0.5,2.6v1.4h-12.7c0,0.4,0.1,0.9,0.2,1.6c0.2,0.6,0.5,1.3,0.9,1.9c0.4,0.6,1,1.1,1.7,1.6
			c0.7,0.4,1.7,0.7,2.8,0.7c1,0,2-0.2,2.9-0.7c0.9-0.5,1.7-1.1,2.2-2L401.9,183.1z M400.4,177.1c0-0.7-0.1-1.3-0.4-1.9
			c-0.3-0.6-0.6-1.1-1.1-1.6c-0.5-0.4-1-0.8-1.7-1.1c-0.6-0.3-1.3-0.4-2-0.4c-1.1,0-2,0.2-2.7,0.7c-0.7,0.4-1.3,0.9-1.7,1.5
			s-0.7,1.1-0.9,1.7c-0.2,0.5-0.3,0.9-0.3,1.1H400.4z"/>
		<path class="st11" d="M410.3,170.9h2v2.6h0.1c0.3-0.5,0.7-1,1.1-1.4c0.5-0.4,1-0.7,1.5-0.9s1.1-0.4,1.7-0.6s1.2-0.2,1.7-0.2
			c1.2,0,2.2,0.2,3.2,0.6c1,0.4,1.8,0.9,2.5,1.7s1.3,1.5,1.7,2.5c0.4,1,0.6,2,0.6,3.2c0,1.2-0.2,2.2-0.6,3.2c-0.4,1-0.9,1.8-1.7,2.5
			c-0.7,0.7-1.5,1.3-2.5,1.7c-1,0.4-2,0.6-3.2,0.6c-0.6,0-1.1-0.1-1.7-0.2s-1.2-0.3-1.7-0.6s-1-0.6-1.5-0.9
			c-0.5-0.4-0.8-0.8-1.1-1.4h-0.1v10.1h-2V170.9z M412.1,178.4c0,0.8,0.2,1.7,0.5,2.4c0.3,0.8,0.8,1.4,1.3,2c0.6,0.6,1.2,1,2,1.3
			c0.8,0.3,1.6,0.5,2.5,0.5c0.9,0,1.7-0.2,2.5-0.5c0.7-0.3,1.4-0.8,1.9-1.3c0.5-0.6,0.9-1.2,1.2-2c0.3-0.8,0.4-1.6,0.4-2.4
			c0-0.9-0.1-1.7-0.4-2.4c-0.3-0.8-0.7-1.4-1.2-2c-0.5-0.6-1.2-1-1.9-1.3c-0.7-0.3-1.6-0.5-2.5-0.5c-0.9,0-1.7,0.2-2.5,0.5
			c-0.8,0.3-1.4,0.8-2,1.3c-0.6,0.6-1,1.2-1.3,2C412.3,176.8,412.1,177.6,412.1,178.4z"/>
		<path class="st11" d="M434.7,161.3h2v12.3h0.1c0.4-0.8,1-1.5,2-2.1c0.9-0.6,2-0.9,3.2-0.9c1.2,0,2.1,0.2,2.9,0.6s1.3,0.9,1.7,1.5
			c0.4,0.6,0.7,1.3,0.9,2.1c0.2,0.8,0.2,1.6,0.2,2.4v9h-2v-8.9c0-0.6-0.1-1.2-0.2-1.8c-0.1-0.6-0.3-1.1-0.6-1.6
			c-0.3-0.5-0.7-0.8-1.1-1.1c-0.5-0.3-1.1-0.4-1.9-0.4c-0.7,0-1.4,0.1-2,0.4c-0.6,0.3-1.2,0.6-1.7,1.1c-0.5,0.5-0.8,1.2-1.1,1.9
			c-0.3,0.8-0.4,1.7-0.4,2.7v7.6h-2V161.3z"/>
		<path class="st11" d="M456.8,164.9c0-0.4,0.1-0.8,0.4-1c0.3-0.3,0.6-0.4,1-0.4c0.4,0,0.8,0.1,1,0.4c0.3,0.3,0.4,0.6,0.4,1
			c0,0.4-0.1,0.8-0.4,1c-0.3,0.3-0.6,0.4-1,0.4c-0.4,0-0.8-0.1-1-0.4C456.9,165.7,456.8,165.3,456.8,164.9z M457.3,170.9h2V186h-2
			V170.9z"/>
		<path class="st11" d="M469.1,161.3h2V186h-2V161.3z"/>
		<path class="st11" d="M480.5,164.9c0-0.4,0.1-0.8,0.4-1c0.3-0.3,0.6-0.4,1-0.4c0.4,0,0.8,0.1,1,0.4c0.3,0.3,0.4,0.6,0.4,1
			c0,0.4-0.1,0.8-0.4,1c-0.3,0.3-0.6,0.4-1,0.4c-0.4,0-0.8-0.1-1-0.4C480.7,165.7,480.5,165.3,480.5,164.9z M481,170.9h2V186h-2
			V170.9z"/>
		<path class="st11" d="M492.1,170.9h2v2.6h0.1c0.3-0.5,0.7-1,1.1-1.4c0.5-0.4,1-0.7,1.5-0.9c0.5-0.3,1.1-0.4,1.7-0.6
			c0.6-0.1,1.2-0.2,1.7-0.2c1.2,0,2.2,0.2,3.2,0.6c1,0.4,1.8,0.9,2.5,1.7c0.7,0.7,1.3,1.5,1.7,2.5c0.4,1,0.6,2,0.6,3.2
			c0,1.2-0.2,2.2-0.6,3.2c-0.4,1-0.9,1.8-1.7,2.5c-0.7,0.7-1.5,1.3-2.5,1.7c-1,0.4-2,0.6-3.2,0.6c-0.6,0-1.1-0.1-1.7-0.2
			c-0.6-0.1-1.2-0.3-1.7-0.6c-0.5-0.3-1-0.6-1.5-0.9c-0.5-0.4-0.8-0.8-1.1-1.4h-0.1v10.1h-2V170.9z M493.9,178.4
			c0,0.8,0.2,1.7,0.5,2.4c0.3,0.8,0.8,1.4,1.3,2c0.6,0.6,1.2,1,2,1.3c0.8,0.3,1.6,0.5,2.5,0.5c0.9,0,1.7-0.2,2.5-0.5
			c0.7-0.3,1.4-0.8,1.9-1.3c0.5-0.6,0.9-1.2,1.2-2c0.3-0.8,0.4-1.6,0.4-2.4c0-0.9-0.1-1.7-0.4-2.4c-0.3-0.8-0.7-1.4-1.2-2
			c-0.5-0.6-1.2-1-1.9-1.3s-1.6-0.5-2.5-0.5c-0.9,0-1.7,0.2-2.5,0.5c-0.8,0.3-1.4,0.8-2,1.3c-0.6,0.6-1,1.2-1.3,2
			C494.1,176.8,493.9,177.6,493.9,178.4z"/>
		<path class="st11" d="M516.1,170.9h2v2.6h0.1c0.3-0.5,0.7-1,1.1-1.4c0.5-0.4,1-0.7,1.5-0.9c0.5-0.3,1.1-0.4,1.7-0.6
			c0.6-0.1,1.2-0.2,1.7-0.2c1.2,0,2.2,0.2,3.2,0.6s1.8,0.9,2.5,1.7s1.3,1.5,1.7,2.5c0.4,1,0.6,2,0.6,3.2c0,1.2-0.2,2.2-0.6,3.2
			c-0.4,1-0.9,1.8-1.7,2.5c-0.7,0.7-1.5,1.3-2.5,1.7s-2,0.6-3.2,0.6c-0.6,0-1.1-0.1-1.7-0.2c-0.6-0.1-1.2-0.3-1.7-0.6
			c-0.5-0.3-1-0.6-1.5-0.9c-0.5-0.4-0.8-0.8-1.1-1.4h-0.1v10.1h-2V170.9z M517.9,178.4c0,0.8,0.2,1.7,0.5,2.4c0.3,0.8,0.8,1.4,1.3,2
			c0.6,0.6,1.2,1,2,1.3c0.8,0.3,1.6,0.5,2.5,0.5c0.9,0,1.7-0.2,2.5-0.5c0.7-0.3,1.4-0.8,1.9-1.3c0.5-0.6,0.9-1.2,1.2-2
			c0.3-0.8,0.4-1.6,0.4-2.4c0-0.9-0.1-1.7-0.4-2.4c-0.3-0.8-0.7-1.4-1.2-2c-0.5-0.6-1.2-1-1.9-1.3s-1.6-0.5-2.5-0.5
			c-0.9,0-1.7,0.2-2.5,0.5c-0.8,0.3-1.4,0.8-2,1.3c-0.6,0.6-1,1.2-1.3,2C518.1,176.8,517.9,177.6,517.9,178.4z"/>
		<path class="st11" d="M540.4,164.9c0-0.4,0.1-0.8,0.4-1c0.3-0.3,0.6-0.4,1-0.4c0.4,0,0.8,0.1,1,0.4c0.3,0.3,0.4,0.6,0.4,1
			c0,0.4-0.1,0.8-0.4,1c-0.3,0.3-0.6,0.4-1,0.4c-0.4,0-0.8-0.1-1-0.4C540.5,165.7,540.4,165.3,540.4,164.9z M540.9,170.9h2V186h-2
			V170.9z"/>
		<path class="st11" d="M552.4,175.1c0-0.3,0-0.6,0-1c0-0.4,0-0.8-0.1-1.2s0-0.8,0-1.2c0-0.4,0-0.6,0-0.8h2c0,0.6,0,1.1,0.1,1.6
			c0,0.5,0,0.9,0.1,1h0.1c0.4-0.8,1-1.5,2-2.1c0.9-0.6,2-0.9,3.2-0.9c1.2,0,2.1,0.2,2.9,0.6s1.3,0.9,1.7,1.5
			c0.4,0.6,0.7,1.3,0.9,2.1c0.2,0.8,0.2,1.6,0.2,2.4v9h-2v-8.9c0-0.6-0.1-1.2-0.2-1.8c-0.1-0.6-0.3-1.1-0.6-1.6
			c-0.3-0.5-0.7-0.8-1.1-1.1c-0.5-0.3-1.1-0.4-1.9-0.4c-0.7,0-1.4,0.1-2,0.4c-0.6,0.3-1.2,0.6-1.7,1.1c-0.5,0.5-0.8,1.2-1.1,1.9
			c-0.3,0.8-0.4,1.7-0.4,2.7v7.6h-2V175.1z"/>
		<path class="st11" d="M587.9,183.1c-0.8,1.2-1.7,2-2.8,2.5c-1.1,0.5-2.4,0.8-3.7,0.8c-1.2,0-2.2-0.2-3.1-0.6
			c-0.9-0.4-1.7-0.9-2.4-1.7c-0.7-0.7-1.2-1.5-1.6-2.5c-0.4-1-0.5-2-0.5-3.2c0-1.1,0.2-2.2,0.6-3.1c0.4-1,0.9-1.8,1.6-2.5
			c0.7-0.7,1.5-1.3,2.4-1.7c0.9-0.4,1.9-0.6,3-0.6c1.2,0,2.2,0.2,3.1,0.6s1.6,0.9,2.2,1.6c0.6,0.7,1.1,1.4,1.4,2.3
			c0.3,0.8,0.5,1.7,0.5,2.6v1.4h-12.7c0,0.4,0.1,0.9,0.2,1.6c0.2,0.6,0.5,1.3,0.9,1.9c0.4,0.6,1,1.1,1.7,1.6
			c0.7,0.4,1.7,0.7,2.8,0.7c1,0,2-0.2,2.9-0.7c0.9-0.5,1.7-1.1,2.2-2L587.9,183.1z M586.4,177.1c0-0.7-0.1-1.3-0.4-1.9
			c-0.3-0.6-0.6-1.1-1.1-1.6c-0.5-0.4-1-0.8-1.7-1.1c-0.6-0.3-1.3-0.4-2-0.4c-1.1,0-2,0.2-2.7,0.7c-0.7,0.4-1.3,0.9-1.7,1.5
			s-0.7,1.1-0.9,1.7c-0.2,0.5-0.3,0.9-0.3,1.1H586.4z"/>
		<path class="st11" d="M596.8,182.1c0.4,0.8,1,1.4,1.8,1.8c0.8,0.4,1.7,0.6,2.5,0.6c0.4,0,0.8-0.1,1.2-0.2c0.4-0.1,0.8-0.3,1.1-0.6
			c0.3-0.2,0.6-0.5,0.8-0.9c0.2-0.3,0.3-0.7,0.3-1.2c0-0.7-0.2-1.2-0.7-1.6c-0.4-0.3-1-0.6-1.7-0.8c-0.7-0.2-1.4-0.4-2.2-0.5
			c-0.8-0.1-1.5-0.4-2.2-0.7c-0.7-0.3-1.2-0.7-1.7-1.2c-0.4-0.5-0.7-1.3-0.7-2.2c0-0.7,0.2-1.4,0.5-1.9c0.3-0.5,0.7-1,1.2-1.4
			c0.5-0.4,1-0.6,1.7-0.8c0.6-0.2,1.2-0.3,1.9-0.3c1.2,0,2.3,0.2,3.2,0.7c0.9,0.5,1.6,1.2,2.1,2.2l-1.8,1c-0.4-0.7-0.8-1.2-1.4-1.6
			c-0.6-0.4-1.3-0.5-2.2-0.5c-0.3,0-0.7,0.1-1.1,0.2c-0.4,0.1-0.7,0.3-1,0.5c-0.3,0.2-0.6,0.4-0.8,0.8c-0.2,0.3-0.3,0.7-0.3,1
			c0,0.7,0.2,1.2,0.7,1.5c0.4,0.3,1,0.6,1.7,0.8c0.7,0.2,1.4,0.3,2.2,0.5c0.8,0.1,1.5,0.3,2.2,0.6c0.7,0.3,1.2,0.7,1.7,1.3
			c0.4,0.6,0.7,1.3,0.7,2.4c0,0.8-0.1,1.5-0.4,2c-0.3,0.6-0.7,1.1-1.2,1.5c-0.5,0.4-1.1,0.7-1.7,0.9c-0.7,0.2-1.3,0.3-2.1,0.3
			c-1.3,0-2.5-0.3-3.6-0.8c-1.1-0.5-1.9-1.3-2.5-2.3L596.8,182.1z"/>
		<path class="st11" d="M614.8,184.6c0-0.4,0.2-0.8,0.5-1.1c0.3-0.3,0.7-0.5,1.1-0.5c0.4,0,0.8,0.2,1.1,0.5c0.3,0.3,0.5,0.7,0.5,1.1
			s-0.2,0.8-0.5,1.1c-0.3,0.3-0.7,0.5-1.1,0.5c-0.4,0-0.8-0.2-1.1-0.5C615,185.4,614.8,185,614.8,184.6z"/>
		<path class="st11" d="M639.9,183.7c-0.7,0.9-1.6,1.6-2.5,2c-0.9,0.4-1.9,0.6-3,0.6c-1.2,0-2.2-0.2-3.2-0.6c-1-0.4-1.8-0.9-2.5-1.7
			c-0.7-0.7-1.2-1.5-1.6-2.5c-0.4-1-0.6-2-0.6-3.2c0-1.2,0.2-2.2,0.6-3.2c0.4-1,0.9-1.8,1.6-2.5s1.5-1.3,2.5-1.7
			c1-0.4,2-0.6,3.2-0.6c1.1,0,2.1,0.2,3.1,0.7c0.9,0.5,1.8,1.1,2.5,1.9l-1.6,1.2c-0.6-0.6-1.2-1.1-1.9-1.5c-0.7-0.4-1.4-0.5-2.2-0.5
			c-0.9,0-1.7,0.2-2.5,0.5s-1.4,0.8-1.9,1.3c-0.5,0.6-0.9,1.2-1.2,2c-0.3,0.8-0.4,1.6-0.4,2.4c0,0.8,0.1,1.7,0.4,2.4
			c0.3,0.8,0.7,1.4,1.2,2c0.5,0.6,1.2,1,1.9,1.3c0.7,0.3,1.6,0.5,2.5,0.5c0.8,0,1.6-0.2,2.3-0.6c0.7-0.4,1.3-0.9,1.8-1.5
			L639.9,183.7z"/>
		<path class="st11" d="M646.2,178.4c0-1.2,0.2-2.2,0.6-3.2c0.4-1,0.9-1.8,1.6-2.5s1.5-1.3,2.5-1.7c1-0.4,2-0.6,3.2-0.6
			c1.2,0,2.2,0.2,3.2,0.6c1,0.4,1.8,0.9,2.5,1.7c0.7,0.7,1.3,1.5,1.7,2.5c0.4,1,0.6,2,0.6,3.2c0,1.2-0.2,2.2-0.6,3.2
			c-0.4,1-0.9,1.8-1.7,2.5c-0.7,0.7-1.5,1.3-2.5,1.7c-1,0.4-2,0.6-3.2,0.6c-1.2,0-2.2-0.2-3.2-0.6c-1-0.4-1.8-0.9-2.5-1.7
			c-0.7-0.7-1.2-1.5-1.6-2.5C646.4,180.6,646.2,179.6,646.2,178.4z M648.1,178.4c0,0.8,0.1,1.7,0.4,2.4c0.3,0.8,0.7,1.4,1.2,2
			c0.5,0.6,1.2,1,1.9,1.3c0.7,0.3,1.6,0.5,2.5,0.5c0.9,0,1.7-0.2,2.5-0.5c0.7-0.3,1.4-0.8,1.9-1.3c0.5-0.6,0.9-1.2,1.2-2
			c0.3-0.8,0.4-1.6,0.4-2.4c0-0.9-0.1-1.7-0.4-2.4c-0.3-0.8-0.7-1.4-1.2-2c-0.5-0.6-1.2-1-1.9-1.3s-1.6-0.5-2.5-0.5
			c-0.9,0-1.7,0.2-2.5,0.5s-1.4,0.8-1.9,1.3c-0.5,0.6-0.9,1.2-1.2,2C648.3,176.8,648.1,177.6,648.1,178.4z"/>
		<path class="st11" d="M670.5,184.6c0-0.4,0.2-0.8,0.5-1.1c0.3-0.3,0.7-0.5,1.1-0.5c0.4,0,0.8,0.2,1.1,0.5c0.3,0.3,0.5,0.7,0.5,1.1
			s-0.2,0.8-0.5,1.1c-0.3,0.3-0.7,0.5-1.1,0.5c-0.4,0-0.8-0.2-1.1-0.5C670.7,185.4,670.5,185,670.5,184.6z"/>
		<path class="st11" d="M695.8,181.7c0,0.3,0,0.6,0,1c0,0.4,0,0.8,0,1.2c0,0.4,0,0.8,0.1,1.2c0,0.4,0,0.6,0,0.8h-2
			c0-0.6,0-1.1-0.1-1.6c0-0.5,0-0.9-0.1-1h-0.1c-0.4,0.8-1,1.5-2,2.1c-0.9,0.6-2,0.9-3.2,0.9c-1.2,0-2.1-0.2-2.9-0.6
			c-0.8-0.4-1.3-0.9-1.8-1.5c-0.4-0.6-0.7-1.3-0.9-2.1c-0.2-0.8-0.2-1.6-0.2-2.4v-9h2v8.9c0,0.6,0.1,1.2,0.2,1.8
			c0.1,0.6,0.3,1.1,0.6,1.6c0.3,0.5,0.7,0.8,1.1,1.1c0.5,0.3,1.1,0.4,1.9,0.4c0.7,0,1.4-0.1,2-0.4c0.6-0.2,1.2-0.6,1.7-1.1
			c0.5-0.5,0.8-1.2,1.1-1.9c0.3-0.8,0.4-1.7,0.4-2.7v-7.6h2V181.7z"/>
		<path class="st11" d="M705.2,161.3h2v16.5l7.5-6.8h2.9l-7.8,6.9l8.7,8.2h-3l-8.3-8v8h-2V161.3z"/>
	</g>
</g>
</svg>
