<?xml version="1.0" encoding="utf-8"?>
<!-- Generator: Adobe Illustrator 21.0.2, SVG Export Plug-In . SVG Version: 6.00 Build 0)  -->
<svg version="1.1" id="Layer_1" xmlns="http://www.w3.org/2000/svg" xmlns:xlink="http://www.w3.org/1999/xlink" x="0px" y="0px"
	 viewBox="0 0 736.2 188.3" style="enable-background:new 0 0 736.2 188.3;" xml:space="preserve">
<style type="text/css">
	.st0{fill:#364E9C;}
	.st1{fill:#2172B5;}
	.st2{fill:#33A5DD;}
	.st3{fill:#6FC4EF;}
	.st4{fill:#F8D51C;}
	.st5{fill:#F19101;}
	.st6{fill:#E9551E;}
	.st7{fill:#DF2E23;}
	.st8{fill:#BA1B27;}
	.st9{fill:#A01C24;}
	.st10{fill:#811811;}
	.st11{fill:#FFFFFF;}
</style>
<g>
	<g>
		<g>
			<path class="st0" d="M58.6,84.6c0,4.5-0.8,8.2-2.5,11.3c-1.7,3.1-3.9,5.5-6.7,7.4s-6.1,3.2-9.7,4.1c-3.7,0.9-7.5,1.3-11.5,1.3H19
				v28.9H0.5V61h28.1c4.2,0,8.1,0.4,11.7,1.2s6.8,2.2,9.5,4c2.7,1.8,4.8,4.3,6.4,7.2C57.8,76.5,58.6,80.2,58.6,84.6z M40.1,84.7
				c0-1.8-0.4-3.3-1.1-4.4c-0.7-1.2-1.7-2.1-2.9-2.7s-2.6-1.1-4.2-1.3c-1.6-0.2-3.2-0.3-4.8-0.3H19v18h7.8c1.7,0,3.4-0.1,5-0.4
				c1.6-0.3,3-0.8,4.3-1.5s2.3-1.7,3-2.9C39.7,88,40.1,86.5,40.1,84.7z"/>
			<path class="st1" d="M126.2,137.5v-32H96.4v32H77.9V61h18.5v29h29.8V61h18.5v76.6h-18.5V137.5z"/>
			<path class="st2" d="M168.7,137.5V61h18.6v76.6h-18.6V137.5z"/>
			<path class="st3" d="M211.4,137.5V61H230v60.4h29.6v16.1H211.4z"/>
			<path class="st4" d="M276.4,137.5V61H295v76.6h-18.6V137.5z"/>
			<path class="st5" d="M377.1,84.6c0,4.5-0.8,8.2-2.5,11.3c-1.7,3.1-3.9,5.5-6.7,7.4c-2.8,1.9-6.1,3.2-9.7,4.1
				c-3.7,0.9-7.5,1.3-11.5,1.3h-9.2v28.9H319V61h28.1c4.2,0,8.1,0.4,11.7,1.2s6.8,2.2,9.5,4c2.7,1.8,4.8,4.3,6.4,7.2
				C376.3,76.5,377.1,80.2,377.1,84.6z M358.6,84.7c0-1.8-0.4-3.3-1.1-4.4c-0.7-1.2-1.7-2.1-2.9-2.7c-1.2-0.6-2.6-1.1-4.2-1.3
				c-1.6-0.2-3.2-0.3-4.8-0.3h-8.1v18h7.8c1.7,0,3.4-0.1,5-0.4s3-0.8,4.3-1.5s2.3-1.7,3-2.9C358.3,88,358.6,86.5,358.6,84.7z"/>
			<path class="st6" d="M454.5,84.6c0,4.5-0.8,8.2-2.5,11.3c-1.7,3.1-3.9,5.5-6.7,7.4c-2.8,1.9-6.1,3.2-9.7,4.1
				c-3.7,0.9-7.5,1.3-11.5,1.3H415v28.9h-18.5V61h28.1c4.2,0,8.1,0.4,11.7,1.2s6.8,2.2,9.5,4c2.7,1.8,4.8,4.3,6.4,7.2
				C453.8,76.5,454.5,80.2,454.5,84.6z M436.1,84.7c0-1.8-0.4-3.3-1.1-4.4c-0.7-1.2-1.7-2.1-2.9-2.7c-1.2-0.6-2.6-1.1-4.2-1.3
				c-1.6-0.2-3.2-0.3-4.8-0.3H415v18h7.8c1.7,0,3.4-0.1,5-0.4s3-0.8,4.3-1.5s2.3-1.7,3-2.9C435.7,88,436.1,86.5,436.1,84.7z"/>
			<path class="st7" d="M473.9,137.5V61h18.6v76.6h-18.6V137.5z"/>
			<path class="st8" d="M565.2,137.5l-30.8-50.1H534l0.4,50.1h-17.9V61h21.1l30.7,50h0.3l-0.4-50h17.9v76.6h-20.9V137.5z"/>
			<path class="st9" d="M610.2,137.5V61h51.5v15.6H628V91h31.8v14.8H628v15.9h35.6v15.8H610.2z"/>
			<g id="XMLID_2_">
				<g>
					<path class="st10" d="M736.2,68.4l-11.8,12.4c-1.6-2-3.7-3.6-6.2-4.8c-2.5-1.2-5-1.8-7.4-1.8c-1.2,0-2.5,0.1-3.7,0.3
						s-2.4,0.6-3.4,1.2s-1.8,1.4-2.5,2.4s-1,2.2-1,3.7c0,1.3,0.3,2.4,0.8,3.2c0.5,0.9,1.3,1.6,2.4,2.3c1.1,0.7,2.3,1.3,3.7,1.8
						s3.1,1.1,4.9,1.7c2.6,0.9,5.3,1.8,8.1,2.8c2.8,1.1,5.4,2.4,7.7,4.2c2.3,1.7,4.2,3.9,5.7,6.4c1.5,2.6,2.3,5.7,2.3,9.6
						c0,4.4-0.8,8.2-2.4,11.4c-1.6,3.2-3.8,5.8-6.5,7.9c-2.7,2.1-5.9,3.6-9.4,4.6s-7.2,1.5-10.9,1.5c-5.5,0-10.8-1-15.9-2.9
						c-5.1-1.9-9.4-4.6-12.7-8.1l12.1-12.3c1.9,2.3,4.3,4.2,7.4,5.8c3.1,1.6,6.1,2.3,9.1,2.3c1.4,0,2.7-0.1,4-0.4s2.4-0.7,3.4-1.4
						c1-0.7,1.8-1.5,2.3-2.6s0.9-2.4,0.9-3.9c0-1.4-0.4-2.7-1.1-3.7s-1.8-1.9-3.1-2.8c-1.3-0.8-3-1.6-5-2.3c-2-0.7-4.2-1.4-6.8-2.2
						c-2.5-0.8-4.8-1.8-7.2-2.8c-2.3-1.1-4.4-2.5-6.3-4.2c-1.8-1.7-3.3-3.8-4.4-6.2c-1.1-2.4-1.7-5.3-1.7-8.8
						c0-4.2,0.9-7.9,2.6-10.9c1.7-3,4-5.5,6.8-7.5c2.8-1.9,6-3.4,9.5-4.3c3.5-0.9,7.1-1.4,10.7-1.4c4.3,0,8.7,0.8,13.2,2.4
						C728.9,63,732.8,65.4,736.2,68.4z"/>
				</g>
			</g>
		</g>
		<g>
			<g>
				<path class="st11" d="M144.3,29.3V0.8h6.9v28.5H144.3z"/>
				<path class="st11" d="M169.4,6.6v22.6h-6.9V6.6h-8.1V0.8h23v5.9h-8V6.6z"/>
				<path class="st11" d="M184.6,11.7h-5.1l2.9-10.9h5.8L184.6,11.7z"/>
				<path class="st11" d="M208,8.2c-0.6-0.8-1.4-1.3-2.3-1.8c-1-0.4-1.9-0.7-2.8-0.7c-0.5,0-0.9,0-1.4,0.1s-0.9,0.2-1.3,0.5
					c-0.4,0.2-0.7,0.5-0.9,0.9S199,8,199,8.6c0,0.5,0.1,0.9,0.3,1.2s0.5,0.6,0.9,0.8s0.9,0.5,1.4,0.7s1.1,0.4,1.8,0.6
					c1,0.3,2,0.7,3,1.1c1,0.4,2,0.9,2.9,1.6c0.9,0.6,1.6,1.4,2.1,2.4c0.6,1,0.8,2.1,0.8,3.6c0,1.6-0.3,3.1-0.9,4.3
					c-0.6,1.2-1.4,2.2-2.4,3s-2.2,1.4-3.5,1.7c-1.3,0.4-2.7,0.6-4.1,0.6c-2,0-4-0.4-5.9-1.1s-3.5-1.7-4.8-3l4.5-4.6
					c0.7,0.9,1.6,1.6,2.8,2.2c1.1,0.6,2.3,0.9,3.4,0.9c0.5,0,1-0.1,1.5-0.2c0.5-0.1,0.9-0.3,1.3-0.5c0.4-0.2,0.7-0.6,0.9-1
					c0.2-0.4,0.3-0.9,0.3-1.5c0-0.5-0.1-1-0.4-1.4c-0.3-0.4-0.7-0.7-1.1-1c-0.5-0.3-1.1-0.6-1.9-0.8c-0.7-0.3-1.6-0.5-2.5-0.8
					s-1.8-0.6-2.7-1c-0.9-0.4-1.7-0.9-2.3-1.6c-0.7-0.6-1.2-1.4-1.7-2.3c-0.4-0.9-0.6-2-0.6-3.3c0-1.6,0.3-2.9,1-4.1
					c0.6-1.1,1.5-2.1,2.5-2.8s2.2-1.3,3.5-1.6s2.6-0.5,4-0.5c1.6,0,3.3,0.3,4.9,0.9c1.7,0.6,3.1,1.5,4.4,2.6L208,8.2z"/>
				<path class="st11" d="M252.9,29.3l0.2-20.2H253l-7.4,20.2h-4.8l-7.2-20.2h-0.1l0.2,20.2h-6.5V0.8h9.8l6.5,18.3h0.2l6.2-18.3h10
					v28.5H252.9z"/>
				<path class="st11" d="M295.4,14.9c0,2.3-0.4,4.3-1.2,6.2c-0.8,1.9-1.9,3.5-3.2,4.8c-1.4,1.3-3,2.4-4.9,3.1s-4,1.1-6.2,1.1
					s-4.3-0.4-6.2-1.1c-1.9-0.7-3.5-1.8-4.9-3.1c-1.4-1.3-2.5-2.9-3.2-4.8c-0.8-1.9-1.2-3.9-1.2-6.2s0.4-4.3,1.2-6.2
					c0.8-1.8,1.9-3.4,3.2-4.7c1.4-1.3,3-2.3,4.9-3s4-1,6.2-1s4.3,0.3,6.2,1c1.9,0.7,3.6,1.7,4.9,3c1.4,1.3,2.5,2.9,3.2,4.7
					C295,10.6,295.4,12.6,295.4,14.9z M288,14.9c0-1.2-0.2-2.4-0.6-3.5s-1-2-1.7-2.8s-1.6-1.4-2.6-1.8s-2.1-0.7-3.3-0.7
					c-1.2,0-2.3,0.2-3.3,0.7c-1,0.4-1.9,1-2.6,1.8s-1.3,1.7-1.7,2.8c-0.4,1.1-0.6,2.2-0.6,3.5s0.2,2.5,0.6,3.6c0.4,1.1,1,2,1.7,2.8
					s1.6,1.4,2.6,1.8c1,0.4,2.1,0.7,3.3,0.7c1.2,0,2.3-0.2,3.3-0.7c1-0.4,1.9-1.1,2.6-1.8c0.7-0.8,1.3-1.7,1.7-2.8
					C287.8,17.4,288,16.2,288,14.9z"/>
				<path class="st11" d="M315.3,29.3L309.1,18h-2.3v11.3h-6.7V0.8H311c1.4,0,2.7,0.1,4,0.4s2.5,0.8,3.5,1.4s1.9,1.6,2.5,2.7
					s0.9,2.5,0.9,4.1c0,1.9-0.5,3.6-1.6,4.9c-1,1.3-2.5,2.3-4.4,2.8l7.5,12.2H315.3z M315,9.5c0-0.7-0.1-1.2-0.4-1.6s-0.6-0.7-1.1-1
					c-0.4-0.2-0.9-0.4-1.5-0.5s-1.1-0.1-1.6-0.1h-3.7V13h3.3c0.6,0,1.1,0,1.7-0.1s1.1-0.3,1.6-0.5s0.9-0.6,1.2-1
					C314.9,10.8,315,10.2,315,9.5z"/>
				<path class="st11" d="M326.9,29.3V0.8h19.2v5.8h-12.5V12h11.8v5.5h-11.8v5.9h13.3v5.9H326.9z"/>
				<path class="st11" d="M368.5,6.6v5.9h11v5.7h-11v11.1h-6.8V0.8h18.8v5.9h-12V6.6z"/>
				<path class="st11" d="M408.3,23.2c-0.6,1.4-1.4,2.6-2.5,3.6s-2.4,1.8-3.9,2.4c-1.5,0.6-3.2,0.8-5.1,0.8s-3.6-0.3-5.1-0.8
					c-1.5-0.6-2.8-1.3-3.8-2.4c-1-1-1.9-2.2-2.4-3.6c-0.6-1.4-0.8-3-0.8-4.7V0.8h6.8V18c0,0.8,0.1,1.5,0.3,2.2
					c0.2,0.7,0.5,1.3,0.9,1.9c0.4,0.6,1,1,1.7,1.3s1.5,0.5,2.5,0.5s1.8-0.2,2.5-0.5s1.2-0.8,1.7-1.3c0.4-0.6,0.7-1.2,0.9-1.9
					c0.2-0.7,0.3-1.4,0.3-2.2V0.8h6.9v17.8C409.1,20.2,408.8,21.8,408.3,23.2z"/>
				<path class="st11" d="M432.9,29.3l-11.5-18.6h-0.1l0.2,18.6h-6.7V0.8h7.9l11.4,18.6h0.1L434,0.8h6.7v28.5H432.9z"/>
				<path class="st11" d="M456.9,29.3V0.8h6.9v28.5H456.9z"/>
				<path class="st11" d="M488,29.3l-11.5-18.6h-0.1l0.2,18.6h-6.7V0.8h7.9l11.4,18.6h0.1l-0.2-18.6h6.7v28.5H488z"/>
				<path class="st11" d="M523.2,6.6v22.6h-6.9V6.6h-8.1V0.8h23v5.9h-8V6.6z"/>
				<path class="st11" d="M552.6,29.3V17.4h-11.1v11.9h-6.9V0.8h6.9v10.8h11.1V0.8h6.9v28.5H552.6z"/>
				<path class="st11" d="M565.5,29.3V0.8h19.2v5.8h-12.5V12H584v5.5h-11.8v5.9h13.3v5.9H565.5z"/>
			</g>
			<rect y="13.5" class="st11" width="128.4" height="2.7"/>
			<rect x="600.7" y="13.4" class="st11" width="134.6" height="2.8"/>
		</g>
	</g>
	<g>
		<g>
			<path class="st11" d="M166.4,168l4.6,15.3h0.1l5.1-15.3h2.7l5.2,15.3h0.1l4.5-15.3h2.9l-6,18.9h-3l-5-15.3h-0.1l-5,15.3h-3
				l-6-18.9H166.4z"/>
			<path class="st11" d="M200.6,168l4.6,15.3h0.1l5.1-15.3h2.7l5.2,15.3h0.1l4.3-15.3h2.9l-6,18.9h-3l-5-15.3h-0.1l-5,15.3h-3
				l-6-18.9H200.6z"/>
			<path class="st11" d="M234.7,168l4.6,15.3h0.1l5.1-15.3h2.7l5.2,15.3h0.1L257,168h2.9l-6,18.9h-3l-5-15.3h-0.2l-5,15.3h-3
				l-6-18.9H234.7z"/>
			<path class="st11" d="M270.9,185c0,0.6-0.2,1.1-0.6,1.5c-0.4,0.4-0.9,0.7-1.6,0.7c-0.6,0-1.2-0.2-1.6-0.7
				c-0.4-0.4-0.6-0.9-0.6-1.5s0.2-1.1,0.6-1.5s0.9-0.7,1.6-0.7c0.6,0,1.2,0.2,1.6,0.7C270.7,183.9,270.9,184.4,270.9,185z"/>
			<path class="st11" d="M290.2,170.3h-5.3v11c0,0.7,0.1,1.3,0.2,1.7c0.1,0.5,0.3,0.8,0.6,1.1c0.3,0.3,0.6,0.4,0.9,0.5
				s0.7,0.1,1.1,0.1s0.8-0.1,1.2-0.2c0.4-0.1,0.8-0.3,1.2-0.4l0.1,2.4c-0.5,0.2-1,0.3-1.5,0.4c-0.5,0.1-1.1,0.1-1.7,0.1
				c-0.5,0-1-0.1-1.6-0.2c-0.6-0.1-1.1-0.4-1.6-0.8c-0.5-0.4-0.9-0.9-1.2-1.5c-0.3-0.6-0.5-1.5-0.5-2.5v-11.8h-3.9V168h3.9v-5.3h2.7
				v5.3h5.3L290.2,170.3L290.2,170.3z"/>
			<path class="st11" d="M317.3,177.5c0,1.4-0.2,2.7-0.7,3.9s-1.2,2.3-2.1,3.1c-0.9,0.9-1.9,1.6-3.2,2.1c-1.2,0.5-2.6,0.7-4.1,0.7
				s-2.8-0.2-4-0.7s-2.3-1.2-3.2-2.1c-0.9-0.9-1.6-1.9-2.1-3.1c-0.5-1.2-0.7-2.5-0.7-3.9s0.2-2.7,0.7-3.9s1.2-2.3,2.1-3.1
				c0.9-0.9,1.9-1.6,3.2-2.1c1.2-0.5,2.6-0.7,4-0.7c1.5,0,2.8,0.2,4.1,0.7c1.2,0.5,2.3,1.2,3.2,2.1c0.9,0.9,1.6,1.9,2.1,3.1
				C317,174.7,317.3,176,317.3,177.5z M314.4,177.5c0-1-0.2-2-0.5-3c-0.3-0.9-0.8-1.7-1.4-2.4s-1.4-1.2-2.3-1.6
				c-0.9-0.4-1.9-0.6-3-0.6s-2.1,0.2-3,0.6c-0.9,0.4-1.6,0.9-2.2,1.6c-0.6,0.7-1.1,1.5-1.4,2.4s-0.5,1.9-0.5,3c0,1,0.2,2,0.5,3
				c0.3,0.9,0.8,1.7,1.4,2.4s1.4,1.2,2.2,1.6c0.9,0.4,1.9,0.6,3,0.6s2.1-0.2,3-0.6c0.9-0.4,1.6-0.9,2.3-1.6c0.6-0.7,1.1-1.5,1.4-2.4
				C314.2,179.5,314.4,178.5,314.4,177.5z"/>
			<path class="st11" d="M340.9,186.9c-0.1-0.5-0.1-1.1-0.1-1.7c0-0.6,0-1.1,0-1.5h-0.1c-0.5,1.1-1.4,2-2.6,2.7s-2.5,1-3.8,1
				c-2.4,0-4.2-0.7-5.4-2.1c-1.2-1.4-1.8-3.3-1.8-5.6V168h2.7v10.4c0,1,0.1,1.9,0.2,2.7c0.2,0.8,0.4,1.5,0.8,2.1s0.9,1,1.6,1.3
				s1.5,0.5,2.5,0.5c0.7,0,1.4-0.1,2.1-0.4c0.7-0.3,1.3-0.7,1.8-1.3s1-1.4,1.3-2.3c0.3-0.9,0.5-2,0.5-3.3V168h2.7v14.7
				c0,0.5,0,1.2,0,2s0.1,1.5,0.1,2.2H340.9z"/>
			<path class="st11" d="M354.7,170.2c0-0.8-0.1-1.5-0.1-2.2h2.6c0.1,0.5,0.1,1.1,0.1,1.7c0,0.6,0,1.1,0,1.5h0.1
				c0.5-1.1,1.3-2,2.4-2.7s2.3-1,3.6-1c0.3,0,0.7,0,0.9,0c0.3,0,0.6,0.1,0.9,0.2l-0.4,2.6c-0.2-0.1-0.4-0.1-0.8-0.2
				c-0.4-0.1-0.8-0.1-1.1-0.1c-0.7,0-1.4,0.1-2.1,0.4c-0.7,0.3-1.3,0.7-1.8,1.3s-0.9,1.3-1.2,2.2c-0.3,0.9-0.5,2-0.5,3.2v9.6h-2.7
				V172C354.8,171.7,354.7,171,354.7,170.2z"/>
			<path class="st11" d="M376.7,160.8c0,0.6-0.2,1-0.6,1.4s-0.8,0.5-1.3,0.5s-0.9-0.2-1.3-0.5c-0.4-0.4-0.6-0.8-0.6-1.4
				c0-0.6,0.2-1,0.6-1.4s0.8-0.5,1.3-0.5s0.9,0.2,1.3,0.5C376.5,159.8,376.7,160.2,376.7,160.8z M376.1,186.9h-2.7V168h2.7V186.9z"
				/>
			<path class="st11" d="M397.6,172.5c-0.4-0.8-1-1.4-1.8-1.9s-1.8-0.7-2.8-0.7c-0.5,0-1,0.1-1.5,0.2c-0.5,0.1-0.9,0.3-1.3,0.5
				s-0.7,0.6-0.9,0.9c-0.2,0.4-0.3,0.8-0.3,1.3c0,0.9,0.4,1.6,1.1,2c0.7,0.5,1.9,0.9,3.4,1.2c2.2,0.5,3.9,1.1,4.9,2
				c1.1,0.9,1.6,2,1.6,3.5c0,1.1-0.2,2-0.6,2.7s-1,1.3-1.6,1.8c-0.7,0.5-1.4,0.8-2.3,1c-0.8,0.2-1.7,0.3-2.6,0.3
				c-1.4,0-2.8-0.3-4.2-0.9c-1.3-0.6-2.4-1.5-3.3-2.8l2.2-1.6c0.5,0.8,1.2,1.5,2.1,2.1s2,0.8,3.1,0.8c0.6,0,1.2-0.1,1.7-0.2
				c0.5-0.1,1-0.3,1.4-0.6s0.7-0.6,1-1c0.2-0.4,0.4-0.9,0.4-1.6c0-1-0.5-1.7-1.4-2.2c-1-0.5-2.3-1-4.1-1.4c-0.6-0.1-1.2-0.3-1.8-0.5
				c-0.6-0.2-1.2-0.5-1.8-0.9c-0.5-0.4-1-0.9-1.3-1.5s-0.5-1.3-0.5-2.2c0-1,0.2-1.8,0.6-2.5s0.9-1.2,1.5-1.7c0.6-0.4,1.4-0.8,2.2-1
				c0.8-0.2,1.6-0.3,2.5-0.3c1.3,0,2.6,0.3,3.8,0.9c1.2,0.6,2.2,1.4,2.8,2.5L397.6,172.5z"/>
			<path class="st11" d="M414.7,168.6c1.1-0.7,2.4-1,3.7-1c0.5,0,1,0.1,1.6,0.2c0.5,0.1,1.1,0.3,1.6,0.6s1,0.7,1.5,1.2
				c0.4,0.5,0.8,1.2,1.1,2c0.6-1.3,1.5-2.3,2.6-3s2.4-1,4-1c2.4,0,4.2,0.7,5.4,2.1c1.2,1.4,1.8,3.3,1.8,5.6v11.6h-2.7v-10.4
				c0-2-0.4-3.6-1.1-4.8s-2-1.8-3.8-1.8c-1,0-1.8,0.2-2.5,0.6c-0.7,0.4-1.2,0.9-1.7,1.6c-0.4,0.7-0.7,1.4-0.9,2.2
				c-0.2,0.8-0.3,1.7-0.3,2.6v10h-2.7v-11c0-0.9-0.1-1.7-0.2-2.5s-0.4-1.4-0.7-1.9c-0.3-0.5-0.8-0.9-1.4-1.2s-1.3-0.4-2.3-0.4
				c-0.6,0-1.3,0.1-2,0.4c-0.7,0.3-1.2,0.7-1.8,1.3c-0.5,0.6-0.9,1.4-1.3,2.3c-0.3,0.9-0.5,2-0.5,3.3v9.7h-2.7v-14.7
				c0-0.5,0-1.2,0-2s-0.1-1.5-0.1-2.2h2.6c0.1,0.5,0.1,1.1,0.1,1.7c0,0.6,0,1.1,0,1.5h0.1C412.8,170.2,413.6,169.3,414.7,168.6z"/>
			<path class="st11" d="M453,185c0,0.6-0.2,1.1-0.6,1.5s-0.9,0.7-1.6,0.7c-0.6,0-1.2-0.2-1.6-0.7c-0.4-0.4-0.6-0.9-0.6-1.5
				s0.2-1.1,0.6-1.5s0.9-0.7,1.6-0.7c0.6,0,1.2,0.2,1.6,0.7C452.8,183.9,453,184.4,453,185z"/>
		</g>
		<g>
			<path class="st11" d="M472.4,188.3c-1.4,0-2.8-0.3-4-0.8c-1.2-0.5-2.3-1.3-3.2-2.2c-0.9-0.9-1.6-2-2.1-3.2
				c-0.5-1.2-0.8-2.5-0.8-3.9V178c0-1.4,0.3-2.7,0.8-4s1.2-2.3,2.1-3.3c0.9-0.9,2-1.7,3.2-2.2c1.2-0.5,2.6-0.8,4-0.8
				c0.9,0,1.8,0.1,2.5,0.3s1.5,0.4,2.1,0.7c0.6,0.3,1.2,0.7,1.7,1.1c0.5,0.4,1,0.9,1.5,1.4l-1.9,2.1c-0.8-0.8-1.6-1.5-2.6-2.1
				c-0.9-0.6-2.1-0.9-3.4-0.9c-1,0-1.9,0.2-2.8,0.6c-0.9,0.4-1.6,0.9-2.2,1.6c-0.6,0.7-1.1,1.5-1.5,2.4c-0.4,0.9-0.5,1.9-0.5,3v0.1
				c0,1.1,0.2,2.1,0.6,3c0.4,0.9,0.9,1.7,1.5,2.4c0.6,0.7,1.4,1.2,2.3,1.6c0.9,0.4,1.8,0.6,2.9,0.6c1.3,0,2.4-0.3,3.4-0.8
				c1-0.6,1.9-1.3,2.6-2.1l1.9,1.7c-1,1.1-2.1,2-3.4,2.7S474.3,188.3,472.4,188.3z"/>
			<path class="st11" d="M497.4,188.3c-1.5,0-2.8-0.3-4.1-0.8s-2.3-1.3-3.2-2.2c-0.9-0.9-1.6-2-2.1-3.2c-0.5-1.2-0.8-2.5-0.8-3.9
				V178c0-1.4,0.3-2.7,0.8-4s1.2-2.3,2.1-3.3c0.9-0.9,2-1.7,3.2-2.2c1.3-0.5,2.6-0.8,4.1-0.8c1.5,0,2.8,0.3,4.1,0.8
				c1.3,0.5,2.3,1.3,3.2,2.2c0.9,0.9,1.6,2,2.1,3.2c0.5,1.2,0.8,2.5,0.8,3.9v0.1c0,1.4-0.3,2.7-0.8,4c-0.5,1.2-1.2,2.3-2.1,3.3
				c-0.9,0.9-2,1.7-3.3,2.2S498.9,188.3,497.4,188.3z M497.5,185.7c1.1,0,2-0.2,2.9-0.6c0.9-0.4,1.6-1,2.3-1.6
				c0.6-0.7,1.1-1.5,1.5-2.4c0.4-0.9,0.5-1.9,0.5-2.9V178c0-1.1-0.2-2.1-0.6-3c-0.4-0.9-0.9-1.7-1.5-2.4c-0.7-0.7-1.4-1.2-2.3-1.7
				c-0.9-0.4-1.8-0.6-2.9-0.6c-1.1,0-2,0.2-2.9,0.6c-0.9,0.4-1.6,1-2.3,1.6c-0.6,0.7-1.1,1.5-1.5,2.4c-0.4,0.9-0.5,1.9-0.5,2.9v0.1
				c0,1.1,0.2,2.1,0.6,3c0.4,0.9,0.9,1.7,1.5,2.4c0.6,0.7,1.4,1.2,2.3,1.6C495.5,185.5,496.5,185.7,497.5,185.7z"/>
			<path class="st11" d="M535.9,188.3c-1.2,0-2.2-0.2-3.2-0.6c-0.9-0.4-1.7-0.9-2.4-1.6c-0.6-0.7-1.1-1.5-1.5-2.5
				c-0.3-1-0.5-2-0.5-3.2v-12.2h2.9v11.5c0,1.8,0.5,3.3,1.4,4.3s2.3,1.6,4,1.6c0.8,0,1.6-0.1,2.3-0.4s1.3-0.7,1.9-1.3
				c0.5-0.5,0.9-1.2,1.2-2c0.3-0.8,0.5-1.6,0.5-2.5v-11.2h2.9v19.6h-2.9v-3.4c-0.7,1.1-1.5,2-2.6,2.7
				C539,187.9,537.6,188.3,535.9,188.3z"/>
			<path class="st11" d="M555.3,160.1h2.9v19.2l10.6-11.1h3.6l-8.2,8.4l8.5,11.2h-3.5l-7-9.2l-4,4v5.1h-2.9V160.1z"/>
		</g>
		<path class="st11" d="M519.8,185c0,0.6-0.2,1.1-0.6,1.5c-0.4,0.4-0.9,0.7-1.6,0.7c-0.6,0-1.2-0.2-1.6-0.7
			c-0.4-0.4-0.6-0.9-0.6-1.5s0.2-1.1,0.6-1.5c0.4-0.4,0.9-0.7,1.6-0.7c0.6,0,1.2,0.2,1.6,0.7C519.6,183.9,519.8,184.4,519.8,185z"/>
	</g>
</g>
</svg>
