<?xml version="1.0" encoding="utf-8"?>
<!-- Generator: Adobe Illustrator 21.0.2, SVG Export Plug-In . SVG Version: 6.00 Build 0)  -->
<svg version="1.1" id="Layer_1" xmlns="http://www.w3.org/2000/svg" xmlns:xlink="http://www.w3.org/1999/xlink" x="0px" y="0px"
	 viewBox="0 0 730 237.8" style="enable-background:new 0 0 730 237.8;" xml:space="preserve">
<style type="text/css">
	.st0{fill:#FFFFFF;}
</style>
<title>partner</title>
<g>
	<g>
		<g>
			<path class="st0" d="M175.9,140.8c-0.3,19.2,2.4,40.8,27.8,40.8c22.7,0,39.5-15.1,43.2-37.3h4.3c-4.3,24.9-22.7,41.6-47.6,41.6
				c-31.6,0-53.8-24.3-53.8-60c0-26.2,21.1-60,50.5-60c31.9,0,48.4,35.7,48.4,47c0,1.6-0.8,2.4-2.4,2.4h-70.5V140.8z M222.9,103.6
				c0-17.3-4.6-33.2-22.4-33.2c-18.9,0-24.6,15.9-24.6,33.2v7.6H221c1.4,0,1.9-0.8,1.9-1.9V103.6z"/>
			<path class="st0" d="M276.2,76.3h-21.3v-4.3h21.3c13,0,17.8,0,22.7-5.9v27.6h0.5c7-13,20.5-27.6,40.3-27.6
				c28.9,0,37,14.6,37,30.5v81.9h21.4v4.3h-65.4v-4.3H354V90c0-14.9-7.3-19.7-15.9-19.7c-22.7,0-34.3,22.7-39.2,31.9v76.2h20.5v4.3
				h-64.6v-4.3h21.3V76.3z"/>
			<path class="st0" d="M423.4,140.8c-0.3,19.2,2.4,40.8,27.8,40.8c22.7,0,39.5-15.1,43.2-37.3h4.3c-4.3,24.9-22.7,41.6-47.6,41.6
				c-31.6,0-53.8-24.3-53.8-60c0-26.2,21.1-60,50.5-60c31.9,0,48.4,35.7,48.4,47c0,1.6-0.8,2.4-2.4,2.4h-70.5V140.8z M470.4,103.6
				c0-17.3-4.6-33.2-22.4-33.2c-18.9,0-24.6,15.9-24.6,33.2v7.6h45.1c1.4,0,1.9-0.8,1.9-1.9V103.6z"/>
			<path class="st0" d="M668.9,76.3h-23.5v-4.3c28.1,0.5,38.4-11.4,43-37.8h3.2v37.8h37.3v4.3h-37.3v90.8c0,11.1,4.6,14.6,13.2,14.6
				c13.5,0,19.5-12.4,21.1-17l4,0.8c-1.9,6.5-9.7,20.5-29.7,20.5c-18.9,0-31.3-6.2-31.3-24.1V76.3z"/>
			<path class="st0" d="M631.9,80.5"/>
			<g>
				<path class="st0" d="M607.6,76.3h-9.1v-4.3h9.1c8.6,0,17.3-0.5,22.7-5.9v112.4h21.6v4.3H586v-4.3h21.6V76.3z"/>
			</g>
			<g>
				<g>
					<path class="st0" d="M561.9,78.6c-17,48.9-31.4,99.1-43.9,120.7c-18.8,32.8-30.5,39-46.8,38.4c-8.8-0.3-15.3-7.8-15.1-14.6
						c0.3-7.3,6.1-11.9,12.1-11.7c7,0.2,11.5,4.5,11.3,10.3c-0.2,7-5.2,6.9-5.3,9.8c-0.1,1.7,1.5,2.5,3.8,2.6
						c4.4,0.2,14.6-3.1,22.3-23c10-25.9,23.2-84.7,38-129.3l1.3-3.9c8.5-27.4,23-48.4,37.4-61.5C590.3,4.8,601.4-0.4,612.8,0
						c9.3,0.3,17.7,7,17.4,16c-0.2,6.5-4.1,12.5-12.9,12.6c-8.5,0.1-12.8-7.8-12.6-13.1c0.2-6.5,4.4-7.6,4.5-9.8
						c0.1-1.9-2-2-3.6-2.1c-15.5-0.5-31.2,36.3-35,47.8L561.9,78.6z"/>
				</g>
			</g>
			<polygon class="st0" points="515.2,76.3 515.2,71.9 587,71.9 587,76.3 			"/>
			<g>
				<path class="st0" d="M18.7,12.1H0V7.6h18.7c8.7,0,17.4-0.6,22.8-6.8v92.4h0.5C47,80.4,60,65.4,79.6,65.4
					c32.6,0,54.1,33.7,54.1,60.3c0,31.8-22,60.3-56,60.3c-19.3,0-32.1-14.4-35.6-23.1h-0.5v19.8H0v-4.3h18.7V12.1z M41.6,143.4
					c0,25.8,20.1,38.3,36.1,38.3c26.6,0,29.9-15.5,29.9-56c0-37.2-4.1-56-28-56c-22.6,0-38,22.3-38,42.1V143.4z"/>
			</g>
		</g>
	</g>
	<g>
		<path class="st0" d="M32.1,214.6c-2.5-1.4-3.8-1.9-5.5-1.9c-3,0-5.2,2-5.2,4.7c0,6.6,11.7,3.4,11.7,12c0,3.8-3.1,6.7-7.1,6.7
			c-2,0-4.1-0.7-6.3-2.2v-2.2c2.7,2,4.3,2.6,6.2,2.6c2.9,0,5.2-2.1,5.2-4.9c0-7-11.7-3.9-11.7-12c0-3.6,3.2-6.5,7.1-6.5
			c1.9,0,3.8,0.5,5.7,1.6V214.6z"/>
		<path class="st0" d="M70.4,235.9h-2l-3.9-8.5h-12l-3.9,8.5h-2L58,211.1h1L70.4,235.9z M58.5,214.2l-5.3,11.6h10.6L58.5,214.2z"/>
		<path class="st0" d="M107.4,235.9h-1.6l-18.7-21.5v21.5h-1.9v-24.6h1.6l18.6,21.5v-21.5h1.9V235.9z"/>
		<path class="st0" d="M159.5,212.9h-10.7v9.3h9.7v1.6h-9.7v12.1h-1.9v-24.6h12.7V212.9z"/>
		<path class="st0" d="M180.9,211.3c6,0,8.1,3.1,8.1,6.3c0,2.8-1.5,4.8-4.7,6c1.2,0.6,2.1,2,3.3,3.7l5.6,8.5H191l-4.3-6.7
			c-3-4.6-3.9-5-6.8-5h-3.3v11.8h-1.9v-24.6H180.9z M176.5,222.5h4.1c4.3,0,6.4-1.9,6.4-4.8c0-2.8-2-4.8-6.5-4.8h-4V222.5z"/>
		<path class="st0" d="M228.2,235.9h-2l-3.9-8.5h-12l-3.9,8.5h-2l11.4-24.8h1L228.2,235.9z M216.3,214.2l-5.3,11.6h10.6L216.3,214.2
			z"/>
		<path class="st0" d="M265.2,235.9h-1.6L245,214.4v21.5H243v-24.6h1.6l18.6,21.5v-21.5h1.9V235.9z"/>
		<path class="st0" d="M303.2,215.1c-3.1-1.6-5.8-2.4-8.8-2.4c-6.1,0-10.7,4.6-10.7,10.9c0,6.3,4.6,10.8,11,10.8
			c2.8,0,5.4-0.8,8.8-2.5v2c-2.8,1.5-5.9,2.3-8.7,2.3c-7.5,0-13.1-5.4-13.1-12.6c0-7.5,6.2-12.7,12.9-12.7c2.7,0,5.7,0.7,8.7,2.1
			V215.1z"/>
		<path class="st0" d="M320.9,235.9H319v-24.6h1.9V235.9z"/>
		<path class="st0" d="M350,214.6c-2.5-1.4-3.8-1.9-5.5-1.9c-3,0-5.2,2-5.2,4.7c0,6.6,11.7,3.4,11.7,12c0,3.8-3.1,6.7-7.1,6.7
			c-2,0-4.1-0.7-6.3-2.2v-2.2c2.7,2,4.3,2.6,6.2,2.6c2.9,0,5.2-2.1,5.2-4.9c0-7-11.7-3.9-11.7-12c0-3.6,3.2-6.5,7.1-6.5
			c1.9,0,3.8,0.5,5.7,1.6V214.6z"/>
		<path class="st0" d="M387.7,215.1c-3.1-1.6-5.8-2.4-8.8-2.4c-6.1,0-10.7,4.6-10.7,10.9c0,6.3,4.6,10.8,11,10.8
			c2.8,0,5.4-0.8,8.8-2.5v2c-2.8,1.5-5.9,2.3-8.7,2.3c-7.5,0-13.1-5.4-13.1-12.6c0-7.5,6.2-12.7,12.9-12.7c2.7,0,5.7,0.7,8.7,2.1
			V215.1z"/>
		<path class="st0" d="M415.5,236.2c-7.3,0-13-5.6-13-12.6c0-7.1,5.7-12.6,13-12.6c7.3,0,13,5.6,13,12.6
			C428.6,230.7,422.9,236.2,415.5,236.2z M415.6,212.8c-6.2,0-11,4.7-11,10.9c0,6.1,4.8,10.9,11,10.9c6.2,0,10.9-4.7,10.9-10.9
			C426.5,217.5,421.8,212.8,415.6,212.8z"/>
	</g>
</g>
</svg>
